<?xml version="1.0" encoding="UTF-8" standalone="no"?>
<svg
   xmlns:dc="http://purl.org/dc/elements/1.1/"
   xmlns:cc="http://creativecommons.org/ns#"
   xmlns:rdf="http://www.w3.org/1999/02/22-rdf-syntax-ns#"
   xmlns:svg="http://www.w3.org/2000/svg"
   xmlns="http://www.w3.org/2000/svg"
   xmlns:sodipodi="http://sodipodi.sourceforge.net/DTD/sodipodi-0.dtd"
   xmlns:inkscape="http://www.inkscape.org/namespaces/inkscape"
   version="1.1"
   id="svg5195"
   width="23.360001"
   height="8.3199997"
   viewBox="0 0 23.360001 8.3199997"
   sodipodi:docname="scroll.svg"
   inkscape:version="1.0.1 (3bc2e813f5, 2020-09-07)">
  <metadata
     id="metadata5201">
    <rdf:RDF>
      <cc:Work
         rdf:about="">
        <dc:format>image/svg+xml</dc:format>
        <dc:type
           rdf:resource="http://purl.org/dc/dcmitype/StillImage" />
        <dc:title></dc:title>
      </cc:Work>
    </rdf:RDF>
  </metadata>
  <defs
     id="defs5199" />
  <sodipodi:namedview
     pagecolor="#ffffff"
     bordercolor="#666666"
     borderopacity="1"
     objecttolerance="10"
     gridtolerance="10"
     guidetolerance="10"
     inkscape:pageopacity="0"
     inkscape:pageshadow="2"
     inkscape:window-width="1920"
     inkscape:window-height="1016"
     id="namedview5197"
     showgrid="false"
     inkscape:zoom="27.423774"
     inkscape:cx="12.33142"
     inkscape:cy="6.7753603"
     inkscape:window-x="0"
     inkscape:window-y="27"
     inkscape:window-maximized="1"
     inkscape:current-layer="g5203" />
  <g
     inkscape:groupmode="layer"
     inkscape:label="Image"
     id="g5203">
    <g
       id="g5786"
       transform="translate(0.16000001)">
      <path
         style="fill:#f4eee8;stroke-width:0.32"
         d="M 0,4.1599998 V 0 h 11.680001 11.68 v 4.1599998 4.1599999 h -11.68 H 0 Z"
         id="path5790" />
      <path
         style="fill:#453a2c;stroke-width:0.32"
         d="M 0,4.1599998 V 0 h 11.642868 11.642867 l 0.05152,3.4688786 c 0.04261,2.8688754 -0.03936,3.5443013 -0.473891,3.9049298 -0.483921,0.4016182 -0.47874,0.4544169 0.06561,0.66863 C 23.25404,8.1703568 18.912001,8.2684339 13.280001,8.2603879 7.6480003,8.2523421 3.293763,8.1795648 3.6039179,8.0986611 3.9140728,8.0177572 4.0855743,7.8184615 3.9850325,7.6557815 3.8747442,7.4773309 7.4909309,7.3599997 13.101115,7.3599997 h 9.298886 V 4.3199998 1.28 h -1.12 c -0.782222,0 -1.12,-0.144762 -1.12,-0.48000003 0,-0.414618 -1.157654,-0.47999998 -8.498886,-0.47999998 -4.9212424,0 -8.4243568,0.12059033 -8.3218384,0.28646885 C 3.5768386,0.9908519 2.7502402,1.28 1.4138281,1.28 H 0.32000001 V 4.3199998 7.3599997 H 1.5466667 c 0.8770371,0 1.2266668,0.1368115 1.2266668,0.48 0,0.3528205 -0.3674075,0.48 -1.3866668,0.48 H 0 Z"
         id="path5788" />
    </g>
    <g
       id="g5768"
       transform="translate(0.16000001)">
      <path
         style="fill:#f5f0ea;stroke-width:0.32"
         d="m 0.32000001,4.1270997 c 0,-2.5713903 0.0533333,-2.8394807 0.48000002,-2.412814 0.67959387,0.6795937 0.67959387,4.8606497 0,5.1214344 C 0.39514789,6.9910765 0.32000001,6.5670199 0.32000001,4.1270997 Z M 2.5417518,6.1920033 C 2.3757884,5.7554862 2.2400001,4.617643 2.2400001,3.6634623 c 0,-1.6913845 0.029055,-1.7470136 1.1590797,-2.219168 0.9203162,-0.3845325 2.6680405,-0.48429433 8.4843422,-0.48429433 4.028895,0 7.575309,0.13348823 7.880921,0.29664063 0.305612,0.1631524 0.814009,0.3770699 1.12977,0.4753723 0.495106,0.1541353 0.561162,0.4986382 0.48,2.5033594 l -0.09411,2.3246275 -1.6,0.2164358 c -0.88,0.1190397 -5.028212,0.2148157 -9.218249,0.2128352 l -7.6182485,-0.0036 z"
         id="path5784" />
      <path
         style="fill:#d9cdb7;stroke-width:0.32"
         d="M 2.6499239,7.5702285 C 2.6929334,7.3429994 2.2540192,7.1999997 1.5135675,7.1999997 0.55066201,7.1999997 0.40532482,7.1282845 0.79356749,6.844722 1.4252475,6.3833594 1.5026889,1.9395192 0.88000004,1.8849389 0.66000003,1.8656554 1.1121686,1.7257213 1.884819,1.5739744 2.6574694,1.4222275 3.5328082,1.0780049 3.8300162,0.80903543 4.2827538,0.39931343 5.5989017,0.31999999 11.945198,0.31999999 c 7.148136,0 7.610852,0.0360493 8.214803,0.63999998 0.474478,0.47447833 0.520743,0.63999993 0.178885,0.63999993 -0.253613,0 -0.550111,-0.144 -0.658885,-0.3199999 -0.122699,-0.1985307 -3.030297,-0.32000003 -7.659806,-0.32000003 -5.9384168,0 -7.6986995,0.0988845 -8.6211152,0.48429433 -1.1300244,0.4721544 -1.1590797,0.5277835 -1.1590797,2.219168 0,2.4514949 0.4120237,3.3742126 1.5120797,3.3862683 0.8316346,0.00911 0.8473505,0.033683 0.2479204,0.387593 C 3.1188242,7.9575783 2.566312,8.011969 2.6499239,7.5702285 Z m 19.9430391,0.056438 c 0.09064,-0.1466666 0.30031,-0.2666666 0.465923,-0.2666666 0.165614,0 0.301115,0.12 0.301115,0.2666666 0,0.1466669 -0.209666,0.2666669 -0.465924,0.2666669 -0.256258,0 -0.391759,-0.12 -0.301114,-0.2666669 z M 19.840001,6.7616896 21.280001,6.56 V 4.0794674 c 0,-1.8128291 0.111154,-2.4803892 0.412941,-2.48 0.311365,4e-4 0.39008,0.6499296 0.32,2.6405324 l -0.09294,2.64 -1.76,0.04169 c -1.735615,0.041112 -1.740049,0.038895 -0.32,-0.16 z"
         id="path5782" />
      <path
         style="fill:#aba29b;stroke-width:0.32"
         d="M 2.2400001,7.3599997 C 1.9515867,7.1736125 1.9121176,7.0478442 2.1411147,7.0448999 c 0.209613,-0.0027 0.4701114,0.1390998 0.5788854,0.3150998 0.2455376,0.397288 0.1347594,0.397288 -0.48,0 z M 0.90000004,7.1414033 C 1.131,7.0489645 1.4070001,7.0603332 1.5133334,7.1666673 1.6196667,7.2730007 1.4306667,7.3486324 1.0933334,7.3347377 0.72055161,7.3193818 0.64472556,7.2435556 0.90000004,7.1414033 Z M 8.7391322,7.1206545 c 2.4305228,-0.05443 6.3185228,-0.05429 8.6400008,3.12e-4 2.321477,0.054602 0.332868,0.099135 -4.419132,0.098964 C 8.2080004,7.2197588 6.3086096,7.1750845 8.7391322,7.1206541 Z M 1.04,1.3794158 c 0.3080001,-0.080489 0.8120001,-0.080489 1.1200001,0 0.308,0.080489 0.056,0.1463433 -0.56,0.1463433 -0.61600006,0 -0.86800007,-0.065854 -0.5600001,-0.1463433 z m 20.000001,0.00865 c 0.22,-0.088772 0.58,-0.088772 0.8,0 0.22,0.088772 0.04,0.1614035 -0.4,0.1614035 -0.44,0 -0.62,-0.072632 -0.4,-0.1614035 z M 3.1939939,1.0686687 C 3.3754904,0.97883651 3.4425921,0.77363652 3.3431086,0.61266871 3.2436248,0.45170091 3.3267278,0.31999999 3.5277813,0.31999999 c 0.4746653,0 0.2316736,0.73660161 -0.2757812,0.83600001 -0.2134,0.0418 -0.2395028,0.0025 -0.058006,-0.087331 z M 19.986843,0.93870998 c -0.116011,-0.18770946 -0.142299,-0.40991989 -0.05842,-0.49380094 0.08388,-0.083881 0.237781,0.0696994 0.342001,0.34128994 0.216378,0.56387432 0.03195,0.66305862 -0.283583,0.152511 z"
         id="path5780" />
      <path
         style="fill:#9a8d6c;stroke-width:0.32"
         d="m 3.5200002,7.8742362 c 0,-0.06917 0.223479,-0.2115206 0.4966201,-0.3163347 C 4.3013963,7.4486228 4.4298434,7.5022698 4.3177349,7.683665 4.1298123,7.9877303 3.5200002,8.1334083 3.5200002,7.8742362 Z M 21.664556,7.1350218 C 21.884164,6.9787185 22.100283,5.8358993 22.168413,4.47066 l 0.119303,-2.3906601 -0.02386,2.5343187 c -0.01852,1.9673935 -0.131233,2.5634091 -0.503857,2.6643618 -0.339093,0.091868 -0.367112,0.049696 -0.09544,-0.1436586 z M 0.11181263,4.4799998 c 0,-1.4959999 0.0551219,-2.1079999 0.122493,-1.3599999 0.0673711,0.748 0.0673711,1.9719999 0,2.7199999 -0.0673711,0.748 -0.122493,0.136 -0.122493,-1.36 z M 20.740001,1.0614035 c 0.231,-0.0924386 0.507,-0.0810702 0.613333,0.025263 0.106333,0.1063334 -0.08267,0.1819649 -0.42,0.1680702 -0.372781,-0.015355 -0.448608,-0.091181 -0.193333,-0.1933332 z"
         id="path5778" />
      <path
         style="fill:#86755b;stroke-width:0.32"
         d="M 3.5200002,8.0917693 C 3.7840002,7.994032 4.1832965,7.7690327 4.4073256,7.5917706 4.7120408,7.350666 4.7638754,7.4017959 4.6130892,7.7947376 4.5022303,8.0836317 4.1029336,8.3086314 3.7257637,8.2947367 3.2576849,8.2774928 3.1923686,8.213064 3.5200002,8.0917693 Z M 0.90000004,7.4614033 C 1.131,7.3689645 1.4070001,7.3803332 1.5133334,7.4866673 1.6196667,7.5930007 1.4306667,7.6686324 1.0933334,7.6547376 0.72055161,7.6393818 0.64472556,7.5635556 0.90000004,7.4614033 Z M 21.760001,1.28 C 21.471587,1.0936129 21.432118,0.96784432 21.661115,0.96490006 21.870729,0.96220499 22.131227,1.104 22.240001,1.28 c 0.245538,0.397288 0.134759,0.397288 -0.48,0 z M 0.88373098,1.0536765 C 1.281783,0.97713465 1.857783,0.98004067 2.163731,1.0601344 2.469679,1.1402279 2.1440001,1.2028531 1.4400001,1.1993013 0.73600003,1.1957495 0.48567893,1.1302183 0.88373098,1.0536765 Z M 20.720001,0.10807017 c 0.22,-0.08877192 0.58,-0.08877192 0.8,0 0.22,0.0887719 0.04,0.1614035 -0.4,0.1614035 -0.44,0 -0.62,-0.0726316 -0.4,-0.1614035 z"
         id="path5776" />
      <path
         style="fill:#726a62;stroke-width:0.32"
         d="m 8.7200004,8.0810339 c 2.0679996,-0.055739 5.4520006,-0.055739 7.5200006,0 2.068,0.05574 0.376,0.101345 -3.76,0.101345 -4.1360006,0 -5.8280007,-0.045605 -3.7600006,-0.101345 z m -0.16,-0.6400745 c 2.1559996,-0.055362 5.6840006,-0.055362 7.8400006,0 2.156,0.055362 0.392,0.1006582 -3.92,0.1006582 -4.3120007,0 -6.0760007,-0.045296 -3.9200006,-0.1006582 z m 12.9007836,0.057216 0.980783,-0.181825 -0.100783,-3.1635838 c -0.05543,-1.739971 0.01292,-3.0492405 0.151904,-2.9094878 0.138978,0.1397528 0.210978,1.6091867 0.16,3.2654087 L 22.559998,7.52 l -1.04,0.08 -1.04,0.08 z m 1.684222,-3.8181752 c 0.0014,-1.232 0.05926,-1.6967882 0.12853,-1.0328626 0.06927,0.6639256 0.06811,1.6719256 -0.0026,2.2399998 -0.07068,0.5680745 -0.127358,0.024863 -0.125938,-1.2071372 z"
         id="path5774" />
      <path
         style="fill:#5d4d2d;stroke-width:0.32"
         d="M 0.90000004,8.1014032 C 1.131,8.0089645 1.4070001,8.0203332 1.5133334,8.1266672 1.6196667,8.2330007 1.4306667,8.3086323 1.0933334,8.2947376 0.72055161,8.2793818 0.64472556,8.2035555 0.90000004,8.1014032 Z m 19.18000096,0.00667 c 0.22,-0.088772 0.58,-0.088772 0.8,0 0.22,0.088772 0.04,0.1614035 -0.4,0.1614035 -0.44,0 -0.62,-0.072631 -0.4,-0.1614035 z M 0.22655395,0.64277761 C 0.36218734,0.12411483 2.2400001,-0.08293265 2.2400001,0.42077522 c 0,0.15823369 0.252,0.19175983 0.56,0.0745026 0.3613413,-0.13756461 0.4464807,-0.10457754 0.24,0.0929873 C 2.8640001,0.75666551 2.1304605,0.94686025 1.4099122,1.0109202 0.3623741,1.1040509 0.12522167,1.0302728 0.22655395,0.64277761 Z M 21.703419,1.0324307 C 20.423751,0.86746941 19.972714,0.15999999 21.147213,0.15999999 c 0.513033,0 0.932788,0.12340639 0.932788,0.27423641 0,0.15083001 0.216,0.19134943 0.48,0.0900431 0.264,-0.1013063 0.48,-0.0532111 0.48,0.10687814 0,0.41852406 -0.361304,0.52699576 -1.336582,0.40127306 z M 4.0837311,0.09367652 c 0.3980521,-0.07654183 0.9740522,-0.07363581 1.28,0.0064578 0.3059482,0.0800936 -0.019731,0.14271876 -0.7237309,0.13916696 -0.704,-0.003552 -0.954321,-0.069083 -0.5562691,-0.14562476 z m 3.6762692,-0.0028779 c 0.4840001,-0.07331989 1.2760001,-0.07331989 1.7600001,0 0.4839996,0.07331988 0.088,0.13330887 -0.88,0.13330887 -0.9680001,0 -1.3640001,-0.059989 -0.8800001,-0.13330887 z M 10.82,0.1014035 c 0.231,-0.09243859 0.507,-0.08107017 0.613334,0.0252632 0.106333,0.10633333 -0.08267,0.18196491 -0.42,0.16807017 C 10.640552,0.27938199 10.564726,0.20355595 10.82,0.1014035 Z"
         id="path5772" />
      <path
         style="fill:#251d0f;stroke-width:0.32"
         d="M 1.12,7.9999997 -0.16000001,7.7708192 1.0211146,7.7254093 c 0.6496131,-0.024975 1.2701115,0.09859 1.3788855,0.2745904 0.108774,0.176 0.1532724,0.2995658 0.098885,0.2745904 C 2.4444985,8.2496147 1.8240001,8.126049 1.12,7.9999997 Z m 3.4705576,-0.08 c -0.081581,-0.132 3.8921704,-0.24 8.8305574,-0.24 4.938387,0 8.978886,0.108 8.978886,0.24 0,0.132 -3.973751,0.24 -8.830558,0.24 -4.8568065,0 -8.8973049,-0.108 -8.9788854,-0.24 z M 22.836875,3.9999999 c 8.33e-4,-1.76 0.05457,-2.4391728 0.119415,-1.509273 0.06485,0.9298999 0.06416,2.3698998 -0.0015,3.1999999 -0.06568,0.8301002 -0.118733,0.069273 -0.1179,-1.6907269 z M 0.02526316,0.45333333 C 0.04061801,0.08055157 0.11644406,0.00472554 0.2185965,0.25999999 0.3110351,0.49099998 0.29966668,0.76699997 0.19333334,0.87333331 0.087,0.97966662 0.01136842,0.79066663 0.02526316,0.45333333 Z M 2.2400001,0.31999999 c 0,-0.176 0.324,-0.31779495 0.72,-0.3150999 0.5822202,0.0039624 0.6281469,0.06426016 0.24,0.3150999 -0.6204029,0.40093515 -0.96,0.40093515 -0.96,0 z m 19.8400009,0 c 0,-0.176 0.324,-0.31779495 0.72,-0.3150999 0.58222,0.0039624 0.628147,0.06426016 0.24,0.3150999 -0.620403,0.40093515 -0.96,0.40093515 -0.96,0 z M 6.0000003,0.10807017 c 0.22,-0.08877192 0.58,-0.08877192 0.8,0 0.22,0.0887719 0.04,0.1614035 -0.4,0.1614035 -0.44,0 -0.6200001,-0.0726316 -0.4,-0.1614035 z m 6.5600007,-0.0086543 c 0.308,-0.08048882 0.812,-0.08048882 1.12,0 0.308,0.08048881 0.056,0.14634329 -0.56,0.14634329 -0.616,0 -0.868,-0.0658545 -0.56,-0.14634329 z m 3.368458,-0.01413476 c 0.752652,-0.06759846 1.904652,-0.06664747 2.56,0.0021133 0.655348,0.06876082 0.03954,0.12406865 -1.368458,0.12290632 -1.408,-0.001162 -1.944194,-0.0574211 -1.191542,-0.12501962 z"
         id="path5770" />
    </g>
    <path
       style="fill:#d9cdb7;fill-opacity:1;stroke:none;stroke-width:0.1;stroke-linecap:butt;stroke-linejoin:miter;stroke-miterlimit:4;stroke-dasharray:none;stroke-opacity:1"
       d="m 20.318088,2.2893976 c -0.245994,0.1848167 -0.08227,4.4452746 -0.08227,4.4452746 l 0.29079,0.041385 z"
       id="path5844"
       sodipodi:nodetypes="cccc" />
  </g>
</svg>
