<?xml version="1.0" encoding="UTF-8"?><svg xmlns="http://www.w3.org/2000/svg" width="24px" height="24px" fill="none" stroke-width="0.8" viewBox="0 0 24 24" color="#000000"><path stroke="#574610" stroke-width="0.8" stroke-linecap="round" stroke-linejoin="round" d="M20 14V3L9 5v11"></path><path stroke="#574610" stroke-width="0.8" stroke-linecap="round" stroke-linejoin="round" d="M17 19h1a2 2 0 0 0 2-2v-3h-3a2 2 0 0 0-2 2v1a2 2 0 0 0 2 2ZM6 21h1a2 2 0 0 0 2-2v-3H6a2 2 0 0 0-2 2v1a2 2 0 0 0 2 2Z"></path></svg>