<?xml version="1.0" encoding="UTF-8" standalone="no"?>
<svg
   xmlns:dc="http://purl.org/dc/elements/1.1/"
   xmlns:cc="http://creativecommons.org/ns#"
   xmlns:rdf="http://www.w3.org/1999/02/22-rdf-syntax-ns#"
   xmlns:svg="http://www.w3.org/2000/svg"
   xmlns="http://www.w3.org/2000/svg"
   xmlns:sodipodi="http://sodipodi.sourceforge.net/DTD/sodipodi-0.dtd"
   xmlns:inkscape="http://www.inkscape.org/namespaces/inkscape"
   version="1.1"
   id="svg4316"
   width="56.639999"
   height="11.84"
   viewBox="0 0 56.639999 11.84"
   sodipodi:docname="button.svg"
   inkscape:version="1.0.1 (3bc2e813f5, 2020-09-07)">
  <metadata
     id="metadata4322">
    <rdf:RDF>
      <cc:Work
         rdf:about="">
        <dc:format>image/svg+xml</dc:format>
        <dc:type
           rdf:resource="http://purl.org/dc/dcmitype/StillImage" />
        <dc:title />
      </cc:Work>
    </rdf:RDF>
  </metadata>
  <defs
     id="defs4320" />
  <sodipodi:namedview
     pagecolor="#ffffff"
     bordercolor="#666666"
     borderopacity="1"
     objecttolerance="10"
     gridtolerance="10"
     guidetolerance="10"
     inkscape:pageopacity="0"
     inkscape:pageshadow="2"
     inkscape:window-width="1920"
     inkscape:window-height="1016"
     id="namedview4318"
     showgrid="false"
     inkscape:zoom="124.60049"
     inkscape:cx="0.93084731"
     inkscape:cy="6.4812621"
     inkscape:window-x="0"
     inkscape:window-y="27"
     inkscape:window-maximized="1"
     inkscape:current-layer="g4324"
     inkscape:document-rotation="0" />
  <g
     inkscape:groupmode="layer"
     inkscape:label="Image"
     id="g4324"
     transform="translate(-0.16)">
    <g
       id="g4925"
       transform="translate(0.16)">
      <path
         style="fill:#e5d4d0;stroke-width:0.32"
         d="M 0,5.92 V 0 h 28.319999 28.32 v 5.92 5.92 h -28.32 H 0 Z"
         id="path4929" />
      <path
         style="fill:#3e3839;stroke-width:0.32"
         d="M 0,5.92 V 0 h 28.319999 28.32 v 5.92 5.92 h -28.32 H 0 Z m 54.437023,3.1553907 c 0.462304,-0.5570448 0.577862,-2.4889798 0.270237,-4.5179849 -0.207277,-1.3671562 0.247821,-2.2854292 0.92519,-1.8667925 0.338749,0.209358 0.687549,-0.5164444 0.687549,-1.4306886 0,-0.36531584 -0.287197,-0.67718505 -0.72,-0.7818504 C 55.203999,0.3823089 42.639999,0.34356538 27.68,0.3919777 L 0.47999999,0.48 0.46640444,1.92 c -0.007477,0.792 0.12849795,1.7746694 0.3021678,2.1837101 0.22080729,0.5200621 0.20002278,0.92904 -0.0691161,1.36 C 0.37103955,5.9895885 0.40235426,6.08 0.91291333,6.08 1.3822047,6.08 1.4775019,6.2565414 1.3547724,6.8985597 1.2475777,7.4593123 1.0487629,7.6597389 0.72351839,7.5349309 0.38823519,7.4062707 0.30621941,7.5025258 0.444371,7.862543 c 0.10759593,0.2803904 0.19562899,0.6574301 0.19562899,0.8378653 0,0.1804355 0.20547171,0.2492176 0.45660381,0.1528493 0.2511321,-0.096369 0.6137647,0.014154 0.8058503,0.245601 0.2830315,0.341032 5.257421,0.4254908 26.2370829,0.445472 22.957736,0.021866 25.934203,-0.031213 26.297486,-0.4689399 z"
         id="path4927" />
    </g>
    <g
       id="g4907"
       transform="translate(0.16)">
      <path
         style="fill:#f3e2dc;stroke-width:0.32"
         d="m 3.8399999,8.288 c 0,-0.1584 0.216,-0.288 0.48,-0.288 0.7032039,0 0.5857914,-0.5376909 -0.16,-0.7327197 C 3.3266044,7.0493424 3.3374956,6.3878093 4.1780991,6.1679869 4.5892825,6.0604598 4.7693759,5.8217558 4.6580991,5.5317731 4.5601442,5.2765088 4.4799999,5.0038694 4.4799999,4.9259078 c 0,-0.077962 -0.36,-0.2786201 -0.8,-0.4459078 -0.44,-0.1672877 -0.8,-0.5140198 -0.8,-0.7705155 0,-0.6189707 1.1965936,-0.9770703 1.7447469,-0.5221433 0.2387194,0.1981193 0.7882918,0.2713039 1.2212726,0.1626329 0.5835146,-0.1464528 0.8457811,-0.046506 1.0134637,0.3862208 0.2036077,0.5254365 0.2639328,0.5331158 0.6033712,0.076811 0.425728,-0.5723031 2.1371455,-1.0993339 2.1371455,-0.6581338 0,0.1578861 -0.2979862,0.484921 -0.6621913,0.7267443 C 8.3127397,4.2966467 8.3036594,4.3750771 8.775837,5.2806477 9.4203189,6.5166742 9.4079131,6.9364378 8.700316,7.8360019 8.2541016,8.4032714 7.9923691,8.5011709 7.5635615,8.2611981 7.200958,8.0582749 6.8727039,8.0594288 6.6232453,8.2645037 6.1436796,8.6587443 3.8399999,8.6781923 3.8399999,8.288 Z M 10.583724,8.359276 C 9.6262002,8.0916973 9.3585624,7.4325619 10.093002,7.1507309 c 0.336088,-0.1289687 0.6538,-0.017376 0.825856,0.2900707 0.182574,0.3262419 0.529803,0.4352099 1.000388,0.3139446 0.642089,-0.1654608 0.672821,-0.127287 0.281571,0.349761 -0.474043,0.5779994 -0.465331,0.5766269 -1.617093,0.2547688 z M 15.52,8.3459984 C 13.562895,8.1834902 13.360827,8.1095126 13.92,7.7602352 14.524693,7.3825245 14.529106,7.3364442 14,6.9249574 13.313198,6.390831 13.283769,6.08 13.92,6.08 14.767543,6.08 14.418213,4.8312243 13.44,4.3641078 13.176,4.2380426 12.6,3.9266691 12.16,3.6721664 l -0.8,-0.4627315 0.741037,-0.00472 c 0.40757,-0.00259 1.028775,-0.1587102 1.380455,-0.3469235 0.438787,-0.2348319 0.763733,-0.239034 1.035614,-0.013392 0.217908,0.1808476 0.712704,0.2460454 1.099545,0.144884 C 16.118802,2.8579703 16.32,2.9479371 16.32,3.3037926 c 0,0.795162 0.665542,0.9876541 0.85886,0.2484045 0.132247,-0.505712 0.42412,-0.6696765 1.178462,-0.66202 0.906975,0.00921 0.948697,0.05114 0.437119,0.4393423 -0.336599,0.2554227 -0.484674,0.6399472 -0.365764,0.949823 0.254855,0.6641408 0.647019,0.666151 0.900873,0.00462 0.147865,-0.3853315 0.304361,-0.4277866 0.61785,-0.1676141 0.304494,0.2527072 0.523227,0.2450263 0.796214,-0.027962 C 21.032128,3.7998714 21.12,3.829855 21.12,4.2168176 c 0,0.2776499 0.214414,0.6827661 0.476476,0.9002582 C 22.181605,5.6026899 21.93606,6.08 21.101114,6.08 20.693333,6.08 20.48,6.2998198 20.48,6.72 c 0,0.4693334 0.213333,0.64 0.8,0.64 0.694072,0 1.207351,0.6053283 0.56,0.6604275 -1.024025,0.08716 -2.312805,0.2368231 -3.12,0.3623181 -0.528,0.082088 -1.968,0.065552 -3.2,-0.036747 z M 34.402284,8.1165715 C 34.011635,7.7259203 33.786665,7.6853334 33.515427,7.9565715 32.917071,8.5549267 30.059134,8.4123645 29.574767,7.76 29.233798,7.3007702 29.04694,7.2683232 28.536362,7.5796842 28.193923,7.7885104 27.609152,7.8797155 27.236872,7.7823622 26.864592,7.6850086 26.56,7.7341536 26.56,7.8915728 26.56,8.048992 25.876,8.1565597 25.04,8.1306122 22.877284,8.0634861 22.80837,8.0344435 23.52,7.4900374 24.117111,7.03324 24.123395,6.9732605 23.613776,6.5950102 23.119721,6.2283123 23.115064,6.1420787 23.565014,5.6921283 23.958621,5.2985216 23.987153,5.0539226 23.701684,4.5205174 23.503248,4.149736 23.23719,3.8798179 23.110445,3.9206989 22.9837,3.9615802 22.52,3.7394803 22.08,3.4271434 21.293596,2.8689102 21.333532,2.8603261 24.429713,2.9220783 c 2.866828,0.057178 3.172907,0.1227748 3.40795,0.7303707 0.223313,0.5772768 0.287132,0.5962617 0.471921,0.1403878 0.160241,-0.3953126 0.65193,-0.5323978 1.965869,-0.5480922 0.963701,-0.01151 2.249964,-0.1143133 2.858364,-0.2284498 1.029014,-0.193044 1.106182,-0.1500127 1.106182,0.6168332 0,0.8891747 1.076608,1.7548512 1.443716,1.1608589 0.118963,-0.1924867 0.447756,-0.027766 0.796707,0.3991347 0.748813,0.9160928 0.404425,1.2783008 -1.256823,1.3218605 C 33.857727,6.5507965 33.356579,7.04 34.685763,7.04 c 0.421171,0 0.844361,0.2048224 0.940425,0.4551606 0.109101,0.2843085 0.452272,0.3955108 0.914237,0.2962496 0.719203,-0.1545337 0.722464,-0.1450352 0.118413,0.3448394 -0.797875,0.6470624 -1.596778,0.6400957 -2.256554,-0.019677 z m 5.837715,0.2942272 c -0.9664,-0.1463977 -1.194451,-0.9502189 -0.360387,-1.270279 0.312698,-0.119993 0.637597,0.011434 0.815898,0.330039 0.274124,0.4898317 0.372889,0.4906432 1.320387,0.010848 0.563257,-0.2852214 1.240102,-0.7056697 1.504102,-0.9343296 0.398858,-0.3454637 0.607709,-0.3118925 1.23545,0.1985885 L 45.510902,7.36 h -0.995453 c -0.547498,0 -0.99545,0.144 -0.99545,0.32 0,0.176 -0.351501,0.32 -0.781113,0.32 C 42.309273,8 41.868774,8.144 41.759999,8.32 41.651225,8.496 41.462726,8.6184243 41.341113,8.5920538 41.2195,8.5656832 40.723999,8.4841184 40.239999,8.4107987 Z m 9.36,-0.090799 c 0,-0.176 0.135501,-0.32 0.301114,-0.32 0.165613,0 0.390112,0.144 0.498886,0.32 0.108775,0.176 -0.02672,0.32 -0.301113,0.32 -0.274388,0 -0.498887,-0.144 -0.498887,-0.32 z m 1.92,-0.32 C 50.726015,7.3113802 49.759698,7.1627165 49.439999,7.68 49.331225,7.856 48.746726,8 48.141113,8 47.115692,8 47.039999,7.929607 47.039999,6.976 c 0,-0.7964445 0.08534,-0.9386666 0.384,-0.64 0.498525,0.4985258 1.446122,0.4936362 1.613443,-0.00833 0.07384,-0.2215107 0.563924,-0.3593203 1.125629,-0.31652 1.079251,0.082236 1.708646,-0.4562739 0.89721,-0.7676515 C 50.785126,5.1379152 50.570396,4.8869322 50.583103,4.6857622 50.621593,4.0763933 52.76741,2.4790203 53.282162,2.6765491 53.976652,2.9430518 53.87357,4.5980288 53.119999,5.28 52.333644,5.9916419 52.186901,7.681615 52.967733,7.0335821 53.653049,6.4648195 53.932082,6.8877846 53.498841,7.8386477 53.057717,8.8068045 52.502457,8.85208 51.519999,7.9999997 Z m 1.28,-3.52 c 0,-0.176 -0.144,-0.32 -0.32,-0.32 -0.176,0 -0.32,0.144 -0.32,0.32 0,0.176 0.144,0.32 0.32,0.32 0.176,0 0.32,-0.144 0.32,-0.32 z m -14.72,2.08 c 0,-0.2933334 0.1548,-0.4817334 0.344,-0.4186666 0.1892,0.063067 0.344,0.2514666 0.344,0.4186666 0,0.1672 -0.1548,0.3556 -0.344,0.4186666 -0.1892,0.063067 -0.344,-0.1253332 -0.344,-0.4186666 z M 10.048196,6.3485395 C 9.9211307,6.1429443 9.7844414,5.5587002 9.7444411,5.0502192 9.6760766,4.1811683 9.7060497,4.1567818 10.244088,4.6436998 c 0.386418,0.3497034 0.642194,0.4050208 0.787279,0.1702676 0.136393,-0.2206877 0.43197,-0.082169 0.809055,0.3791542 0.326782,0.399783 0.49637,0.8162867 0.376863,0.9255638 -0.475968,0.435224 -1.945895,0.5909895 -2.169089,0.2298541 z M 39.680361,6.2404355 C 39.473859,5.9916154 39.376531,5.6721392 39.464073,5.5304883 39.739778,5.0843898 38.77782,4.0693386 38.265622,4.2658883 37.998803,4.3682765 37.689148,4.3042464 37.577503,4.1235997 37.465855,3.9429526 37.065244,3.6796099 36.687254,3.5383942 c -0.538842,-0.20131 -0.351159,-0.2839696 0.869107,-0.382773 1.339846,-0.1084858 1.591181,-0.03443 1.806662,0.5323321 0.356813,0.938488 1.161309,1.5580873 1.439207,1.1084361 0.147126,-0.2380563 0.351731,-0.1734563 0.622214,0.1964551 0.241424,0.3301635 0.614016,0.4701712 0.92928,0.3491923 0.289453,-0.111073 0.526275,-0.080102 0.526275,0.068824 0,0.8636394 -2.609801,1.5402858 -3.199638,0.8295747 z M 43.989958,4.96 C 43.907481,4.696 43.769017,4.254873 43.682258,3.9797178 43.595503,3.7045626 43.403164,3.5544371 43.254841,3.6461056 43.106518,3.7377744 42.5655,3.6824205 42.052582,3.523097 41.226326,3.2664454 41.302418,3.2351846 42.719999,3.2489104 c 0.88,0.00852 2.657875,-0.093047 3.950832,-0.2257059 C 48.518879,2.8335927 49.07983,2.8761176 49.293618,3.2220352 49.514246,3.5790208 49.605474,3.558072 49.77702,3.111032 50.06559,2.359031 50.559999,2.4152095 50.559999,3.2 c 0,0.361385 -0.213334,0.64 -0.490041,0.64 -0.269527,0 -0.57969,0.2336147 -0.689258,0.5191437 C 49.213554,4.794719 48.853561,4.8446909 47.14437,4.6695789 45.478854,4.4989421 45.072985,4.5501747 44.919391,4.9504352 44.679407,5.5758221 44.183938,5.5809206 43.989958,4.96 Z M 4.4255135,1.5645323 C 3.8840959,1.2329598 5.0764121,0.96 7.0661717,0.96 c 1.0492189,0 1.8938281,0.1427136 1.8938281,0.32 0,0.176 -0.252,0.3392174 -0.5599999,0.3627052 -1.718321,0.1310382 -3.6963993,0.092132 -3.9744864,-0.078173 z M 9.6780059,1.7074056 C 9.0553861,1.4563897 9.5474414,0.96 10.418885,0.96 c 0.878235,0 1.046829,0.469563 0.274943,0.7657636 -0.278395,0.10683 -0.530395,0.182868 -0.56,0.1689732 C 10.104223,1.8808421 9.8991025,1.796543 9.6780059,1.7074056 Z M 24.16,1.6 c -0.108775,-0.176 0.107225,-0.32 0.48,-0.32 0.372774,0 0.588774,0.144 0.48,0.32 -0.108775,0.176 -0.324775,0.32 -0.48,0.32 -0.155226,0 -0.371226,-0.144 -0.48,-0.32 z m 27.112706,0.061244 c -0.752012,-0.054316 -1.283513,-0.2343156 -1.181116,-0.4 0.235897,-0.38168913 3.668409,-0.39906155 3.668409,-0.018566 0,0.389552 -0.867597,0.5355525 -2.487293,0.418566 z M 2.82,1.3814035 C 3.0509999,1.2889649 3.3269999,1.3003333 3.4333334,1.4066667 3.5396665,1.513 3.3506665,1.5886316 3.0133333,1.5747368 2.6405515,1.559382 2.5647255,1.4835559 2.82,1.3814035 Z M 18,1.3707986 c 0.484,-0.07332 1.276,-0.07332 1.76,0 0.484,0.07332 0.088,0.1333089 -0.88,0.1333089 -0.968,0 -1.364,-0.059989 -0.88,-0.1333089 z m 21.359999,-0.109684 c 0,-0.186387 0.144,-0.2498886 0.32,-0.1411146 0.176,0.108774 0.32,0.2612724 0.32,0.3388854 0,0.077613 -0.144,0.1411146 -0.32,0.1411146 -0.176,0 -0.32,-0.1524984 -0.32,-0.3388854 z m 2.816,-0.045115 c 0.298666,-0.29866666 0.469335,-0.29866666 0.768,0 0.298666,0.2986667 0.213335,0.384 -0.384,0.384 -0.597334,0 -0.682665,-0.085333 -0.384,-0.384 z m 2.467226,0.05878 C 44.753772,1.0959093 44.978271,1.0324077 45.142111,1.1336656 45.585964,1.4079824 45.503202,1.6 44.941113,1.6 44.666726,1.6 44.532678,1.4536511 44.643225,1.2747796 Z M 46.719999,1.28 c 0,-0.176 0.512499,-0.32 1.138887,-0.32 0.677769,0 1.058809,0.1295623 0.941113,0.32 C 48.691225,1.456 48.178726,1.6 47.661113,1.6 47.1435,1.6 46.719999,1.456 46.719999,1.28 Z"
         id="path4923" />
      <path
         style="fill:#e9d7d3;stroke-width:0.32"
         d="M 2.6605794,8.5438557 C 2.5467841,8.3597309 2.4848365,6.8127267 2.522918,5.1060685 2.5884062,2.1711491 2.554872,1.9933031 1.9038815,1.8230652 0.69214933,1.5061901 1.580293,0.95983043 3.2988854,0.9649001 4.4893906,0.96841194 4.8240114,1.0576827 4.4799999,1.28 3.9283065,1.6365316 3.9491574,1.6403575 6.699598,1.6872766 8.0363512,1.71008 8.8037928,1.5886214 8.8862648,1.3412054 8.9561525,1.1315424 9.1538315,0.96 9.3255518,0.96 9.4972722,0.96 9.5580994,1.088911 9.4607234,1.2464689 9.363347,1.4040268 9.4988488,1.6155073 9.7618379,1.7164257 10.321541,1.931204 11.2,1.6518737 11.2,1.2591222 c 0,-0.1498227 6.336,-0.27669522 14.08,-0.28193887 9.066217,-0.006139 14.079999,0.10305377 14.079999,0.30664137 0,0.1738964 0.1525,0.3161753 0.338887,0.3161753 0.186387,0 0.249888,-0.144 0.141113,-0.32 -0.119619,-0.1935457 0.322973,-0.32 1.12,-0.32 0.797027,0 1.239619,0.1264543 1.12,0.32 -0.108774,0.176 0.107226,0.32 0.48,0.32 0.372775,0 0.588775,-0.144 0.48,-0.32 -0.115696,-0.1871995 0.216304,-0.32 0.8,-0.32 0.583696,0 0.915696,0.1328005 0.8,0.32 -0.108774,0.176 0.03523,0.32 0.32,0.32 0.284775,0 0.428775,-0.144 0.32,-0.32 -0.112166,-0.1814906 0.156679,-0.32 0.621114,-0.32 0.450387,0 0.818886,0.144 0.818886,0.32 0,0.4169469 1.822314,0.4169469 2.08,0 0.108775,-0.176 0.48577,-0.32 0.83777,-0.32 0.352,0 0.551005,0.144 0.44223,0.32 -0.118992,0.1925356 0.351475,0.3351023 1.181114,0.3579144 1.795916,0.049381 2.315532,-0.032894 2.445552,-0.3872275 0.141139,-0.38462444 1.013334,-0.37564914 1.013334,0.010428 0,0.165613 -0.144,0.3901114 -0.32,0.4988854 -0.176,0.108774 -0.321965,1.4492723 -0.324368,2.9788854 -0.0026,1.5296132 -0.08678,3.0882192 -0.187504,3.4635696 L 53.704991,8.8849101 28.286236,8.8817741 C 10.941094,8.8796253 2.8017634,8.772296 2.6605794,8.5438557 Z M 6.6232453,8.2645037 C 6.8727039,8.0594288 7.200958,8.0582749 7.5635615,8.2611981 7.9923691,8.5011709 8.2541016,8.4032714 8.700316,7.8360019 9.4079131,6.9364378 9.4203189,6.5166742 8.775837,5.2806477 8.3036594,4.3750771 8.3127397,4.2966467 8.9378085,3.8816166 9.3020136,3.6397933 9.5999998,3.3127584 9.5999998,3.1548723 c 0,-0.4412001 -1.7114175,0.085831 -2.1371455,0.6581338 C 7.1234159,4.2693107 7.0630908,4.2616314 6.8594831,3.7361949 6.6918005,3.3034685 6.429534,3.2035213 5.8460194,3.3499741 5.4130386,3.4586451 4.8634662,3.3854605 4.6247468,3.1873412 4.0765935,2.7324142 2.8799999,3.0905138 2.8799999,3.7094845 c 0,0.2564957 0.36,0.6032278 0.8,0.7705155 0.44,0.1672877 0.8,0.3679462 0.8,0.4459078 0,0.077962 0.080144,0.350601 0.1780986,0.6058653 0.1112768,0.2899827 -0.068817,0.5286867 -0.48,0.6362138 C 3.3374956,6.3878093 3.3266044,7.0493424 4.1599999,7.2672803 4.9057913,7.4623091 5.0232038,8 4.3199999,8 c -0.264,0 -0.48,0.1296 -0.48,0.288 0,0.3901923 2.3036797,0.3707443 2.7832454,-0.023498 z M 12.200817,8.1045072 c 0.39125,-0.477048 0.360518,-0.5152218 -0.281571,-0.349761 -0.470585,0.1212653 -0.817814,0.012298 -1.000388,-0.3139446 -0.172056,-0.3074474 -0.489768,-0.4190394 -0.825856,-0.2900707 -0.7344396,0.281831 -0.4668018,0.9409664 0.490722,1.2085449 1.151762,0.3218583 1.14305,0.3232308 1.617093,-0.2547686 z M 20.64,8.1371747 C 21.168,8.084199 21.708,8.031663 21.84,8.0204275 22.487351,7.9653283 21.974072,7.36 21.28,7.36 c -0.586667,0 -0.8,-0.1706666 -0.8,-0.64 0,-0.4201802 0.213333,-0.64 0.621114,-0.64 0.834946,0 1.080491,-0.4773101 0.495362,-0.9629242 C 21.334414,4.8995837 21.12,4.4944675 21.12,4.2168176 21.12,3.829855 21.032128,3.7998714 20.743614,4.0883859 20.470627,4.3613725 20.251894,4.3690534 19.9474,4.1163475 19.633911,3.856175 19.477415,3.8986301 19.32955,4.2839616 19.075696,4.9454947 18.683532,4.9434845 18.428677,4.279344 18.309767,3.9694682 18.457842,3.5849437 18.794441,3.329521 19.306019,2.9413168 19.264297,2.8993828 18.357322,2.8901771 17.60298,2.8825206 17.311107,3.0464851 17.17886,3.5521971 16.985542,4.2914467 16.32,4.0989546 16.32,3.3037926 16.32,2.9479371 16.118802,2.8579703 15.616651,2.9892857 15.22981,3.0904471 14.735014,3.0252492 14.517106,2.8444017 14.245225,2.61876 13.920279,2.622962 13.481492,2.857794 13.129812,3.0460073 12.508607,3.2021229 12.101037,3.2047175 L 11.36,3.2094349 12.16,3.6721664 C 12.6,3.9266691 13.176,4.2380426 13.44,4.3641078 14.418213,4.8312243 14.767543,6.08 13.92,6.08 c -0.636231,0 -0.606802,0.310831 0.08,0.8449574 0.529106,0.4114868 0.524693,0.4575671 -0.08,0.8352778 -0.559173,0.3492774 -0.357105,0.423255 1.6,0.5857632 1.232,0.1022992 2.672,0.1188355 3.2,0.036747 0.528,-0.082088 1.392,-0.1925952 1.92,-0.2455707 z m 16.018838,-9.28e-4 C 37.262889,7.6463722 37.259628,7.6368736 36.540425,7.7914074 36.07846,7.8906685 35.735289,7.779465 35.626188,7.4951578 35.530124,7.2448224 35.106934,7.04 34.685763,7.04 33.356579,7.04 33.857727,6.5507965 35.223599,6.5149821 36.884847,6.4714224 37.229235,6.1092144 36.480422,5.1931216 36.131471,4.7662192 35.802678,4.6015002 35.683715,4.7939869 35.316607,5.3879792 34.239999,4.5223027 34.239999,3.633128 c 0,-0.7668459 -0.07717,-0.8098772 -1.106182,-0.6168332 -0.6084,0.1141365 -1.894663,0.2169391 -2.858364,0.2284498 -1.313939,0.015693 -1.805628,0.1527796 -1.965869,0.5480922 C 28.124795,4.2487107 28.060976,4.2297258 27.837663,3.652449 27.60262,3.0448531 27.296541,2.9792561 24.429713,2.9220783 21.333532,2.8603261 21.293596,2.8689102 22.08,3.4271434 c 0.44,0.3123369 0.9037,0.5344368 1.030445,0.4935555 0.126745,-0.040881 0.392803,0.2290371 0.591239,0.5998185 0.285469,0.5334052 0.256937,0.7780042 -0.13667,1.1716109 -0.44995,0.4499504 -0.445293,0.536184 0.04876,0.9028819 0.509619,0.3782503 0.503335,0.4382298 -0.09378,0.8950272 -0.71163,0.5444061 -0.642716,0.5734487 1.52,0.6405748 0.836,0.025949 1.52,-0.08162 1.52,-0.2390394 0,-0.1574192 0.304592,-0.2065642 0.676872,-0.1092106 0.37228,0.097353 0.957051,0.00615 1.29949,-0.202678 0.510578,-0.311361 0.697436,-0.278914 1.038405,0.1803158 0.484367,0.6523645 3.342304,0.7949267 3.94066,0.1965715 0.271238,-0.2712381 0.496208,-0.2306512 0.886857,0.16 0.659776,0.6597738 1.458679,0.6667405 2.256554,0.019677 z M 41.759999,8.32 C 41.868774,8.144 42.309273,8 42.738886,8 c 0.429612,0 0.781113,-0.144 0.781113,-0.32 0,-0.176 0.447952,-0.32 0.99545,-0.32 h 0.995453 L 44.755449,6.7456666 c -0.627741,-0.510481 -0.836592,-0.5440522 -1.23545,-0.1985885 -0.264,0.2286598 -0.940845,0.6491081 -1.504102,0.9343296 -0.947498,0.4797942 -1.046263,0.4789827 -1.320387,-0.010848 -0.178301,-0.3186061 -0.5032,-0.450032 -0.815898,-0.3300391 -0.834064,0.3200602 -0.606013,1.1238813 0.360387,1.2702791 0.484,0.07332 0.979501,0.1548845 1.101114,0.181255 C 41.462726,8.6184243 41.651225,8.496 41.759999,8.32 Z m 8.64,0 C 50.291225,8.144 50.066726,8 49.901113,8 49.7355,8 49.599999,8.144 49.599999,8.32 c 0,0.176 0.224499,0.32 0.498887,0.32 0.274387,0 0.409888,-0.144 0.301113,-0.32 z M 53.498841,7.8386477 C 53.932082,6.8877846 53.653049,6.4648195 52.967733,7.0335821 52.186901,7.681615 52.333644,5.9916419 53.119999,5.28 53.87357,4.5980288 53.976652,2.9430518 53.282162,2.6765504 52.76741,2.4790216 50.621593,4.0763946 50.583103,4.6857635 c -0.0127,0.2011699 0.202023,0.452153 0.477178,0.5577399 0.811436,0.3113776 0.182041,0.8498876 -0.89721,0.7676515 -0.561705,-0.0428 -1.051792,0.095009 -1.125629,0.31652 -0.167321,0.5019613 -1.114918,0.5068509 -1.613443,0.00833 -0.298665,-0.2986666 -0.384,-0.1564445 -0.384,0.64 0,0.953607 0.07569,1.024 1.101114,1.024 0.605613,0 1.190112,-0.144 1.298886,-0.32 0.319699,-0.5172835 1.286016,-0.3686199 2.08,0.32 0.982458,0.85208 1.537718,0.8068045 1.978842,-0.1613523 z M 52.159999,4.48 c 0,-0.176 0.144,-0.32 0.32,-0.32 0.176,0 0.32,0.144 0.32,0.32 0,0.176 -0.144,0.32 -0.32,0.32 -0.176,0 -0.32,-0.144 -0.32,-0.32 z m -13.392,2.08 c 0,-0.1672 -0.1548,-0.3556 -0.344,-0.4186666 -0.1892,-0.063067 -0.344,0.1253332 -0.344,0.4186666 0,0.2933334 0.1548,0.4817334 0.344,0.4186666 C 38.613199,6.9156 38.767999,6.7272 38.767999,6.56 Z M 12.217285,6.1186854 C 12.336792,6.0094083 12.167204,5.5929046 11.840422,5.1931216 11.463337,4.7317987 11.16776,4.5932797 11.031367,4.8139674 10.886282,5.0487206 10.630506,4.9934032 10.244088,4.6436998 9.7060497,4.1567818 9.6760766,4.1811683 9.7444411,5.0502192 9.8523582,6.4220605 10.163324,6.7496253 11.139611,6.5198598 11.612825,6.4084909 12.097778,6.2279622 12.217285,6.1186854 Z M 42.479999,5.9957894 C 43.056767,5.5428051 42.97215,5.1047248 42.353724,5.3420368 42.03846,5.4630157 41.665868,5.3230096 41.424444,4.9928445 41.153961,4.6229331 40.949356,4.5583331 40.80223,4.7963894 40.524332,5.2460406 39.719836,4.6264413 39.363023,3.6879533 39.147542,3.1211908 38.896207,3.0471354 37.556361,3.1556212 c -1.220266,0.098803 -1.407949,0.181463 -0.869107,0.382773 0.37799,0.1412157 0.778601,0.4045584 0.890249,0.5852055 0.111645,0.1806467 0.4213,0.2446768 0.688119,0.1422886 0.512198,-0.1965497 1.474156,0.8185015 1.198451,1.2646 -0.08754,0.1416509 0.0098,0.4611271 0.216288,0.7099472 0.400585,0.4826775 2.057974,0.3378471 2.799638,-0.2446461 z M 46.423999,5.672 c -0.03958,-0.382625 -0.478493,-0.3085232 -0.616,0.104 -0.0704,0.2112 0.0448,0.3264 0.256,0.256 0.2112,-0.0704 0.3732,-0.2324 0.36,-0.36 z M 44.919391,4.9504352 C 45.072985,4.5501747 45.478854,4.4989421 47.14437,4.6695789 48.853561,4.8446909 49.213554,4.794719 49.3807,4.3591437 49.490268,4.0736147 49.800431,3.84 50.069958,3.84 c 0.276707,0 0.490041,-0.278615 0.490041,-0.64 0,-0.7847905 -0.494409,-0.840969 -0.782979,-0.088968 -0.171546,0.44704 -0.262774,0.4679888 -0.483402,0.1110032 -0.213788,-0.3459176 -0.774739,-0.3884425 -2.622787,-0.1988307 -1.292957,0.132659 -3.070832,0.2342265 -3.950832,0.2257059 -1.417581,-0.013725 -1.493673,0.017536 -0.667417,0.2741866 0.512918,0.1593235 1.053936,0.2146774 1.202259,0.1230086 0.148323,-0.091668 0.340662,0.058457 0.427417,0.3336122 0.08676,0.2751552 0.225223,0.7162822 0.3077,0.9802822 0.19398,0.6209206 0.689449,0.6158221 0.929433,-0.00956 z M 35.999999,2.56 c 0.108775,-0.176 0.05377,-0.32 -0.12223,-0.32 -0.176,0 -0.408995,0.144 -0.51777,0.32 -0.108774,0.176 -0.05377,0.32 0.122231,0.32 0.176,0 0.408995,-0.144 0.517769,-0.32 z m 15.68,0 c 0.108774,-0.176 0.04527,-0.32 -0.141114,-0.32 -0.186387,0 -0.338886,0.144 -0.338886,0.32 0,0.176 0.0635,0.32 0.141114,0.32 0.07761,0 0.230112,-0.144 0.338886,-0.32 z m -17.12,-0.8342364 c 0,-0.06917 -0.216,-0.1257636 -0.48,-0.1257636 -0.264,0 -0.48,0.1394806 -0.48,0.3099569 0,0.1704763 0.216,0.2270699 0.48,0.1257635 0.264,-0.1013063 0.48,-0.2407868 0.48,-0.3099568 z M 25.12,1.6 c 0.108774,-0.176 -0.107226,-0.32 -0.48,-0.32 -0.372775,0 -0.588775,0.144 -0.48,0.32 0.108774,0.176 0.324774,0.32 0.48,0.32 0.155225,0 0.371225,-0.144 0.48,-0.32 z M 3.4333334,1.4066667 C 3.3269999,1.3003333 3.0509999,1.2889649 2.82,1.3814035 2.5647255,1.4835559 2.6405515,1.559382 3.0133333,1.5747368 3.3506665,1.5886316 3.5396665,1.513 3.4333334,1.4066667 Z M 19.76,1.3707986 c -0.484,-0.07332 -1.276,-0.07332 -1.76,0 -0.484,0.07332 -0.088,0.1333089 0.88,0.1333089 0.968,0 1.364,-0.059989 0.88,-0.1333089 z"
         id="path4921" />
      <path
         style="fill:#c6b8b8;stroke-width:0.32"
         d="M 2.304,8.896 C 2.0638455,8.6558454 1.92,7.463089 1.92,5.7119008 1.92,3.8216352 1.7900284,2.8286521 1.52,2.6559008 0.97993998,2.3103963 0.2310404,0.94229293 0.45782786,0.71550547 c 0.10019466,-0.10019469 0.18217213,-0.009106 0.18217213,0.20242 0,0.28933723 0.1634951,0.29709223 0.66011201,0.0313109 0.4654882,-0.24912172 8.1311864,-0.3539351 26,-0.35549897 29.174847,-0.002554 27.127135,-0.027959 27.714585,0.34385286 0.387504,0.24526124 0.37568,0.40838414 -0.08,1.10384134 C 54.538818,2.6456194 54.398725,3.5873421 54.3951,5.6687414 54.39254,7.2149338 54.267564,8.6734957 54.117679,8.9099904 53.893861,9.2631363 50.860924,9.3219373 37.146627,9.2390176 27.962436,9.183488 20.307676,9.0512694 20.136051,8.9451987 19.964425,8.839128 27.44233,8.8008912 36.753619,8.8602282 L 53.683234,8.9681136 53.877247,8.244057 C 53.983954,7.8458256 54.073228,6.2684986 54.075631,4.7388854 54.078034,3.2092723 54.223999,1.868774 54.399999,1.76 c 0.176,-0.108774 0.32,-0.3324907 0.32,-0.4971483 0,-0.4357398 -53.0285597,-0.38968908 -53.2980063,0.046285 C 1.30848,1.4928038 1.52533,1.7240718 1.9038815,1.8230652 2.554872,1.9933031 2.5884062,2.1711491 2.522918,5.1060685 2.4848365,6.8127267 2.5638714,8.3873786 2.6985511,8.605295 2.8844703,8.9061187 4.6667266,8.9772502 10.101498,8.9007533 14.038439,8.8453389 17.012169,8.8978733 16.709786,9.0175088 15.681057,9.4244989 2.7232029,9.3152029 2.304,8.896 Z M 18,9.0594157 c 0.308,-0.080489 0.812,-0.080489 1.12,0 0.308,0.080489 0.056,0.1463433 -0.56,0.1463433 -0.616,0 -0.868,-0.065854 -0.56,-0.1463433 z M 45.807999,5.776 c 0.137507,-0.4125232 0.576419,-0.486625 0.616,-0.104 0.01322,0.1276 -0.1488,0.2896 -0.36,0.36 -0.2112,0.0704 -0.3264,-0.0448 -0.256,-0.256 z m -10.448,-3.216 c 0.108775,-0.176 0.34177,-0.32 0.51777,-0.32 0.176,0 0.231005,0.144 0.12223,0.32 -0.108774,0.176 -0.341769,0.32 -0.517769,0.32 -0.176,0 -0.231005,-0.144 -0.122231,-0.32 z m 15.84,0 c 0,-0.176 0.152499,-0.32 0.338886,-0.32 0.186388,0 0.249888,0.144 0.141114,0.32 -0.108774,0.176 -0.261274,0.32 -0.338886,0.32 -0.07761,0 -0.141114,-0.144 -0.141114,-0.32 z m -17.6,-0.6500431 c 0,-0.1704763 0.216,-0.3099569 0.48,-0.3099569 0.264,0 0.48,0.056594 0.48,0.1257636 0,0.06917 -0.216,0.2086505 -0.48,0.3099568 -0.264,0.1013064 -0.48,0.044713 -0.48,-0.1257635 z"
         id="path4919" />
      <path
         style="fill:#a89c9a;stroke-width:0.32"
         d="M 1.7347623,8.8594624 C 1.019431,8.24416 0.93189976,8.0104314 1.2171765,7.4773866 1.6126392,6.7384579 1.2916477,3.7500211 0.69984668,2.6610373 0.19922571,1.7398356 0.2202643,1.42545 0.82285714,0.82285715 1.1980564,0.44765782 1.9088784,0.33313539 3.6228572,0.3717417 l 2.2971427,0.0517417 -2.24,0.18825834 C 2.448,0.71528374 1.266289,0.91261162 1.0539756,1.050248 0.61079417,1.3375493 0.86963272,2.27806 1.4958684,2.6559008 1.7970684,2.8376306 1.92,3.7366813 1.92,5.7577555 1.92,8.3359258 1.9869189,8.6505814 2.6312019,9.1018547 3.0223631,9.3758346 3.174393,9.6 2.9690463,9.6 2.7636996,9.6 2.2082718,9.2667581 1.7347623,8.8594624 Z M 6.1599999,9.362704 c 1.188,-0.06157 3.1319999,-0.06157 4.3200001,0 1.188,0.06157 0.216,0.1119453 -2.1600001,0.1119453 -2.376,0 -3.348,-0.050375 -2.16,-0.1119453 z M 13.52,9.3708 c 0.484,-0.07332 1.276,-0.07332 1.76,0 0.484,0.07332 0.088,0.1333088 -0.88,0.1333088 -0.968,0 -1.364,-0.059989 -0.88,-0.1333088 z m 4.66,0.010605 c 0.231,-0.092439 0.507,-0.08107 0.613333,0.025264 0.106333,0.1063334 -0.08267,0.1819651 -0.42,0.1680704 C 18.000551,9.5593856 17.924725,9.4835581 18.18,9.381405 Z m 9.90573,-0.013318 c 0.575152,-0.07122 1.439152,-0.06975 1.92,0.00326 C 30.486578,9.444363 30.016,9.5026334 28.959999,9.5008372 27.904,9.4990486 27.510578,9.4393043 28.08573,9.3680848 Z m 5.114269,-0.00239 c 0.748,-0.067371 1.972,-0.067371 2.72,0 0.748,0.067371 0.136,0.1224931 -1.36,0.1224931 -1.496,0 -2.108,-0.055122 -1.36,-0.1224931 z m 5.28,0.00118 c 0.66,-0.069038 1.74,-0.069038 2.4,0 0.66,0.069038 0.12,0.1255238 -1.2,0.1255238 -1.32,0 -1.86,-0.056486 -1.2,-0.1255238 z m 9.825959,-0.00666 C 52.276197,9.292048 53.963983,9.1508756 54.141058,8.8721463 54.278085,8.6564583 54.392405,7.2149197 54.3951,5.6687274 54.3987,3.611762 54.540418,2.6431606 54.923346,2.0587406 55.546757,1.1072963 55.422025,0.93952881 53.843532,0.60635918 52.693157,0.3635634 52.703602,0.35847393 54.079999,0.49114526 c 0.792,0.0763411 1.62,0.16506345 1.84,0.19716067 0.22,0.0320972 0.4,0.40285697 0.4,0.82391067 0,0.4210536 -0.124755,0.6884493 -0.277232,0.5942127 -0.15248,-0.094237 -0.532611,0.1108502 -0.844742,0.4557488 -0.474423,0.5242319 -0.532612,0.9676786 -0.354762,2.7035791 0.154736,1.510334 0.08414,2.384279 -0.258934,3.2053657 L 54.112655,9.6 48.416329,9.5280707 42.719999,9.4561414 48.305958,9.360231 Z M 16.56,9.0680701 c 0.22,-0.088772 0.58,-0.088772 0.8,0 0.22,0.088772 0.04,0.1614035 -0.4,0.1614035 -0.44,0 -0.62,-0.072631 -0.4,-0.1614035 z m 3.22,-0.00667 c 0.231,-0.092439 0.507,-0.08107 0.613333,0.025264 0.106333,0.1063334 -0.08267,0.1819651 -0.42,0.1680704 C 19.600551,9.2393853 19.524725,9.1635578 19.78,9.0614054 Z m 2.22573,-0.013318 c 0.575152,-0.07122 1.439152,-0.06975 1.92,0.00326 C 24.406578,9.1243581 23.936,9.1826285 22.88,9.1808323 21.824,9.1790423 21.430579,9.1192963 22.00573,9.0480765 Z M 6.8060901,0.41824298 c 0.3113495,-0.0811339 0.7433494,-0.0757981 0.96,0.0118573 0.2166502,0.0876554 -0.03809,0.15403766 -0.5660902,0.14751616 -0.528,-0.006522 -0.7052595,-0.0782396 -0.3939098,-0.15937346 z m 7.6919639,-0.0173649 c 2.07793,-0.0558256 5.38993,-0.0556417 7.36,4.096e-4 C 23.828124,0.45733683 22.128,0.50301232 18.08,0.50278762 14.032,0.50256291 12.420124,0.45670362 14.498054,0.40087808 Z M 26.8,0.40851341 c 0.572,-0.0709846 1.508,-0.0709846 2.079999,0 0.572,0.0709846 0.104,0.12906288 -1.039999,0.12906288 -1.144,0 -1.612,-0.0580783 -1.04,-0.12906288 z m 4.159999,0.005652 c 0.396,-0.0762729 1.044,-0.0762729 1.44,0 0.396,0.0762729 0.072,0.13867805 -0.72,0.13867805 -0.792,0 -1.116,-0.0624051 -0.72,-0.13867805 z m 4.488458,-0.008884 c 0.752653,-0.0675985 1.904653,-0.0666475 2.56,0.002112 0.655347,0.0687608 0.03954,0.12406861 -1.368458,0.1229063 -1.408,-0.001162 -1.944195,-0.0574212 -1.191542,-0.12501961 z m 4.637632,0.0129619 c 0.31135,-0.0811339 0.74335,-0.0757981 0.96,0.0118573 0.216649,0.0876554 -0.03809,0.15403766 -0.56609,0.14751616 -0.528,-0.006522 -0.705261,-0.0782395 -0.39391,-0.15937346 z m 2.55391,-0.0113529 c 0.66,-0.0690381 1.74,-0.0690381 2.4,0 0.66,0.0690381 0.12,0.12552391 -1.2,0.12552391 -1.32,0 -1.86,-0.0564858 -1.2,-0.12552391 z m 4.48,0.0125258 c 0.308,-0.0804888 0.812,-0.0804888 1.12,0 0.308,0.0804888 0.056,0.1463433 -0.56,0.1463433 -0.616,0 -0.868,-0.0658545 -0.56,-0.1463433 z m 2.4,0.008654 c 0.22,-0.0887719 0.58,-0.0887719 0.8,0 0.22,0.0887719 0.04,0.16140352 -0.4,0.16140352 -0.44,0 -0.62,-0.0726316 -0.4,-0.16140352 z"
         id="path4917" />
      <path
         style="fill:#8b827b;stroke-width:0.32"
         d="m 3.4599999,9.3814035 c 0.231,-0.092439 0.507,-0.08107 0.6133335,0.025264 0.1063331,0.1063335 -0.082667,0.1819651 -0.42,0.1680704 C 3.2805516,9.5593843 3.2047254,9.4835568 3.4599999,9.3814045 Z m 13.7600001,0 c 0.231,-0.092439 0.507,-0.08107 0.613333,0.025264 0.106333,0.1063335 -0.08267,0.1819651 -0.42,0.1680704 C 17.040551,9.5593843 16.964725,9.4835568 17.22,9.3814045 Z m 3.66,-0.018699 c 1.188,-0.06157 3.132,-0.06157 4.32,0 1.188,0.06157 0.216,0.1119453 -2.16,0.1119453 -2.376,0 -3.348,-0.050375 -2.16,-0.1119453 z m 10.079999,0.025366 c 0.22,-0.088772 0.58,-0.088772 0.8,0 0.22,0.088772 0.04,0.1614035 -0.4,0.1614035 -0.44,0 -0.62,-0.072631 -0.4,-0.1614035 z m 11.22,-0.00667 c 0.230999,-0.092439 0.506999,-0.08107 0.613335,0.025264 0.106332,0.1063334 -0.08267,0.1819651 -0.42,0.1680704 C 42.00055,9.5593856 41.924726,9.4835581 42.179999,9.3814058 Z M 54.339106,9.12 C 54.501033,8.768 54.713609,8.264 54.811497,8 c 0.15374,-0.4146381 0.181417,-0.4120726 0.203238,0.018838 0.01389,0.2743613 -0.198678,0.7783613 -0.47239,1.12 C 54.052655,9.7500605 54.049404,9.749759 54.339106,9.12 Z M 0.87999998,8.8345453 C 0.29990629,8.3941914 0.07312152,6.8496499 0.63999999,7.2 c 0.176,0.1087741 0.31999999,-0.1072259 0.31999999,-0.48 0,-0.3727741 -0.11108015,-0.6091197 -0.24684482,-0.5252125 C 0.57739052,6.2786947 0.45646313,5.4103219 0.44442767,4.2650704 0.42767798,2.6712323 0.50030662,2.3208628 0.75405336,2.7713974 1.2858049,3.7155376 1.5993162,6.7633523 1.2347532,7.4445443 0.98799096,7.905624 1.043608,8.2019917 1.4640907,8.6666198 2.0960323,9.3649075 1.7207838,9.472791 0.87999998,8.8345453 Z M 54.919532,5.9076291 C 54.809788,5.6216438 54.734463,5.0034333 54.752143,4.5338282 c 0.02586,-0.6868308 0.08943,-0.6096775 0.325034,0.3944707 0.300419,1.2803901 0.199193,1.9092358 -0.157645,0.9793302 z m 1.134259,-2.158888 C 56.002735,2.5991004 55.963372,2.5567026 55.279999,2.9153041 54.56166,3.2922541 54.56142,3.2915242 55.176437,2.5990018 55.97846,1.6959058 56.398319,2.1394083 56.235621,3.7178307 L 56.107586,4.96 Z M 55.359999,0.64 c -0.410208,-0.26509622 -0.398576,-0.31091232 0.08,-0.3150999 0.308,-0.002695 0.56,0.1390999 0.56,0.3150999 0,0.3902754 -0.03609,0.3902754 -0.64,0 z M 0.57999999,0.42140352 C 0.81099999,0.32896493 1.087,0.34033334 1.1933333,0.44666666 1.2996666,0.553 1.1106666,0.62863158 0.77333333,0.61473683 0.40055158,0.59938198 0.32472553,0.52355594 0.57999999,0.42140352 Z"
         id="path4915" />
      <path
         style="fill:#847a76;stroke-width:0.32"
         d="M 0.3219534,9.2 C 0.3199204,8.617273 0.68225132,8.466239 1.0896329,8.88 c 0.1299647,0.132 0.6939647,0.4005062 1.2533333,0.5966803 1.0027134,0.3516579 0.995659,0.3561635 -0.5010128,0.32 C 0.62431362,9.7672595 0.32352025,9.6491814 0.3219534,9.2 Z M 7.136621,9.681239 c 1.7251417,-0.057649 4.461142,-0.057397 6.08,5.44e-4 C 14.835479,9.7397542 13.424,9.7869213 10.08,9.7866138 6.7359999,9.7863062 5.4114796,9.7388877 7.136621,9.681239 Z M 28.08,9.6885133 c 0.571999,-0.070984 1.507999,-0.070984 2.079999,0 0.572,0.070985 0.104,0.129063 -1.04,0.129063 -1.143999,0 -1.611999,-0.058078 -1.039999,-0.129063 z m 4.799999,-0.00282 c 0.748,-0.067371 1.972,-0.067371 2.72,0 0.748,0.067371 0.136,0.1224931 -1.36,0.1224931 -1.496,0 -2.108,-0.055122 -1.36,-0.1224931 z m 6.08,0.00282 c 0.572,-0.070984 1.508,-0.070984 2.08,0 0.572,0.070985 0.104,0.129063 -1.04,0.129063 -1.144,0 -1.612,-0.058078 -1.04,-0.129063 z m 6.4,-0.00693 c 1.628,-0.058077 4.292,-0.058077 5.92,0 1.628,0.058077 0.296,0.1055949 -2.96,0.1055949 -3.256,0 -4.588,-0.047518 -2.96,-0.1055949 z M 54.629986,9.12 c 0.504717,-0.9997139 0.694301,-3.2220387 0.388237,-4.5509654 -0.227021,-0.9857245 -0.176842,-1.285672 0.271664,-1.6239615 0.496285,-0.3743275 0.572256,-0.2647386 0.776426,1.1199999 0.133596,0.9061107 0.100825,1.5786252 -0.08,1.6415936 -0.168474,0.058667 -0.306314,0.7203484 -0.306314,1.4704041 0,0.991816 -0.187242,1.5299875 -0.686563,1.9733331 C 54.315967,9.7519245 54.311154,9.7515219 54.629986,9.12 Z m 1.395277,-0.6666666 c 0.01536,-0.3727817 0.09118,-0.448608 0.193331,-0.1933334 0.09244,0.231 0.08107,0.507 -0.02525,0.6133334 -0.106336,0.1063332 -0.181965,-0.082667 -0.16807,-0.42 z M 0.46276777,7.0121178 C 0.34451606,6.8207824 0.40801759,6.5039824 0.60388233,6.3081178 0.86537253,6.0466275 0.95999998,6.1390666 0.95999998,6.656 c 0,0.7726435 -0.166227,0.8916954 -0.49723221,0.3561178 z M 0.3705263,4.8 c 0,-0.44 0.0726316,-0.62 0.16140351,-0.4 0.0887719,0.22 0.0887719,0.58 0,0.8 C 0.44315788,5.42 0.3705263,5.24 0.3705263,4.8 Z"
         id="path4913" />
      <path
         style="fill:#5f5758;stroke-width:0.32"
         d="M 0.16408727,11.206613 C 0.05756129,11.034251 0.10803188,10.636066 0.27624414,10.321759 0.56656197,9.7792947 1.9385934,9.7537443 27.309248,9.8183424 53.692796,9.8855194 54.046978,9.8780835 54.858207,9.2399715 55.519519,8.7197834 55.679999,8.3168781 55.679999,7.1767744 55.679999,6.3975485 55.808245,5.76 55.964988,5.76 c 0.156745,0 0.289094,1.296 0.294105,2.88 0.0072,2.27796 -0.08581,2.88 -0.444988,2.88 -0.249757,0 -0.454106,-0.122791 -0.454106,-0.27287 0,-0.289075 -5.995929,-0.83805 -8.16,-0.747112 -0.704,0.02958 -1.928,0.03835 -2.72,0.01949 -0.792,-0.01886 -3.672,-0.0296 -6.4,-0.02385 -2.728,0.0057 -5.824,0.01215 -6.88,0.01423 -1.056,0.0021 -5.663999,-0.03014 -10.239999,-0.07161 -4.576,-0.04147 -9.4,0.01503 -10.72,0.125557 -1.3200002,0.110526 -3.4643816,0.08759 -4.7652919,-0.05098 C 3.3901487,10.290822 3.0044831,10.33564 2.2253096,10.89046 1.2620109,11.57639 0.46789929,11.698191 0.16408727,11.206613 Z M 2.5,11.301404 c 0.231,-0.09244 0.5069999,-0.08107 0.6133333,0.02526 0.1063332,0.106333 -0.082667,0.181965 -0.42,0.16807 C 2.3205515,11.479382 2.2447255,11.403556 2.5,11.301404 Z m 4.7999999,0 c 0.231,-0.09244 0.507,-0.08107 0.6133334,0.02526 0.1063331,0.106333 -0.082667,0.181965 -0.42,0.16807 -0.3727817,-0.01535 -0.448608,-0.09118 -0.1933334,-0.193334 z m 22.3999991,0 c 0.231,-0.09244 0.507,-0.08107 0.613334,0.02526 0.106333,0.106333 -0.08267,0.181965 -0.42,0.16807 -0.372782,-0.01535 -0.448608,-0.09118 -0.193334,-0.193334 z m 9.28,0 c 0.230999,-0.09244 0.506999,-0.08107 0.613335,0.02526 0.106332,0.106333 -0.08267,0.181965 -0.42,0.16807 -0.372784,-0.01535 -0.448608,-0.09118 -0.193335,-0.193334 z m 14.54,-0.002 c 0.308,-0.08049 0.812,-0.08049 1.12,0 0.308,0.08049 0.056,0.146343 -0.56,0.146343 -0.616,0 -0.868,-0.06585 -0.56,-0.146343 z M 0.12535064,4.48 c 0,-2.376 0.0503754,-3.348 0.11194545,-2.16 0.06157,1.188 0.06157,3.132 0,4.32 -0.06157,1.188 -0.11194545,0.216 -0.11194545,-2.16 z M 56.382383,1.44 c 0.0065,-0.528 0.07824,-0.70525939 0.159373,-0.3939098 0.08113,0.3113496 0.0758,0.7433496 -0.01187,0.96 C 56.442242,2.2227406 56.375861,1.968 56.382383,1.44 Z"
         id="path4911" />
      <path
         style="fill:#292525;stroke-width:0.32"
         d="m 0,11.549958 c 0,-0.159523 0.28082089,-0.216605 0.62404642,-0.12685 0.34839737,0.09111 1.03513128,-0.129526 1.55470818,-0.499497 0.8324647,-0.592767 1.1802309,-0.636108 3.2959535,-0.410758 1.3009103,0.138562 3.4452917,0.161501 4.7652919,0.05098 1.32,-0.110526 6.144,-0.167027 10.72,-0.125557 4.576,0.04147 9.183999,0.0737 10.239999,0.07161 1.056,-0.0021 4.152,-0.0085 6.88,-0.01423 2.728,-0.0057 5.608,0.005 6.4,0.02385 0.792,0.01886 2.016,0.01009 2.72,-0.01949 2.164071,-0.09094 8.16,0.458037 8.16,0.747112 0,0.150078 0.211699,0.272869 0.470438,0.272869 0.384093,0 0.488797,-0.748873 0.570455,-4.08 l 0.100016,-4.08 0.06954,4.24 0.06955,4.24 h -28.32 C 11.60344,11.84 0,11.721162 0,11.549958 Z M 3.1133333,11.326667 C 3.0069999,11.220333 2.731,11.208965 2.5,11.301404 c -0.2552745,0.102152 -0.1794485,0.177978 0.1933333,0.193333 0.3373333,0.01389 0.5263332,-0.06174 0.42,-0.16807 z m 4.8,0 c -0.1063334,-0.106334 -0.3823334,-0.117702 -0.6133334,-0.02526 -0.2552746,0.102152 -0.1794483,0.177978 0.1933334,0.193333 0.3373331,0.01389 0.5263331,-0.06174 0.42,-0.16807 z m 22.3999997,0 c -0.106334,-0.106334 -0.382334,-0.117702 -0.613334,-0.02526 -0.255274,0.102152 -0.179448,0.177978 0.193334,0.193333 0.337333,0.01389 0.526333,-0.06174 0.42,-0.16807 z m 9.280001,0 c -0.106336,-0.106334 -0.382336,-0.117702 -0.613335,-0.02526 -0.255273,0.102152 -0.179449,0.177978 0.193335,0.193333 0.337331,0.01389 0.526332,-0.06174 0.42,-0.16807 z m 15.046665,-0.02725 c -0.308,-0.08049 -0.812,-0.08049 -1.12,0 -0.308,0.08049 -0.056,0.146343 0.56,0.146343 0.616,0 0.868,-0.06585 0.56,-0.146343 z M 0.07424086,9.6 c 0,-0.616 0.06585449,-0.868 0.1463433,-0.56 0.0804888,0.308 0.0804888,0.812 0,1.12 -0.0804888,0.308 -0.1463433,0.056 -0.1463433,-0.56 z M 56.345263,2.6933333 C 56.360623,2.3205516 56.436444,2.2447255 56.538594,2.5 c 0.09244,0.231 0.08107,0.507 -0.02525,0.6133333 -0.106336,0.1063333 -0.181965,-0.082667 -0.16807,-0.42 z M 28.16,0.32 -0.16,0.15478162 28.24,0.07739081 C 47.011593,0.02623768 56.639999,0.10848908 56.639999,0.32 c 0,0.176 -0.036,0.28517414 -0.08,0.24260918 C 56.515999,0.52004426 43.735999,0.41087011 28.16,0.32 Z"
         id="path4909" />
    </g>
  </g>
</svg>
