<?xml version="1.0" encoding="UTF-8" standalone="no"?>
<svg
   xmlns:dc="http://purl.org/dc/elements/1.1/"
   xmlns:cc="http://creativecommons.org/ns#"
   xmlns:rdf="http://www.w3.org/1999/02/22-rdf-syntax-ns#"
   xmlns:svg="http://www.w3.org/2000/svg"
   xmlns="http://www.w3.org/2000/svg"
   xmlns:sodipodi="http://sodipodi.sourceforge.net/DTD/sodipodi-0.dtd"
   xmlns:inkscape="http://www.inkscape.org/namespaces/inkscape"
   width="3.556mm"
   height="5.5033331mm"
   viewBox="0 0 3.556 5.5033331"
   version="1.1"
   id="svg2511"
   inkscape:version="1.0.1 (3bc2e813f5, 2020-09-07)"
   sodipodi:docname="navbar.svg">
  <defs
     id="defs2505" />
  <sodipodi:namedview
     id="base"
     pagecolor="#ffffff"
     bordercolor="#666666"
     borderopacity="1.0"
     inkscape:pageopacity="0.0"
     inkscape:pageshadow="2"
     inkscape:zoom="11.500202"
     inkscape:cx="7.6637626"
     inkscape:cy="3.4275378"
     inkscape:document-units="mm"
     inkscape:current-layer="layer1"
     inkscape:document-rotation="0"
     showgrid="false"
     inkscape:window-width="1515"
     inkscape:window-height="1016"
     inkscape:window-x="33"
     inkscape:window-y="27"
     inkscape:window-maximized="0" />
  <metadata
     id="metadata2508">
    <rdf:RDF>
      <cc:Work
         rdf:about="">
        <dc:format>image/svg+xml</dc:format>
        <dc:type
           rdf:resource="http://purl.org/dc/dcmitype/StillImage" />
        <dc:title />
      </cc:Work>
    </rdf:RDF>
  </metadata>
  <g
     inkscape:label="Capa 1"
     inkscape:groupmode="layer"
     id="layer1"
     transform="translate(-20.144619,23.16238)">
    <g
       id="g3501">
      <path
         style="fill:#e4d5c2;stroke-width:0.0846667"
         d="m 20.144619,-20.410713 v -2.751667 h 1.778 1.778 v 2.751667 2.751666 h -1.778 -1.778 z"
         id="path3505" />
      <path
         style="fill:#4e4530;stroke-width:0.0846667"
         d="m 20.146235,-17.86238 c 0,0 1.053034,0.01059 1.776382,0.01 1.536138,-0.0057 1.778,-0.01 1.778,-0.01 l -2e-6,0.203337 h -1.777998 c -1.491083,0 -1.778002,-4e-6 -1.778002,-4e-6 z m -0.0016,-0.371635 c 0,-0.01925 8e-4,-0.09837 8e-4,-0.09837 0,0 0.740857,-0.06574 1.7772,-0.06574 1.255343,0 1.77696,0.06574 1.77696,0.06574 l 0.0022,0.246589 c 0,0 -0.0765,0.0034 -1.779117,0.0034 -1.652383,0 -1.778,-0.003 -1.778,-0.003 z m 0.338667,-3.743032 c 0,-0.04657 0.0381,-0.08467 0.08467,-0.08467 0.04657,0 0.08467,0.0381 0.08467,0.08467 0,0.04657 -0.0381,0.08467 -0.08467,0.08467 -0.04657,0 -0.08467,-0.0381 -0.08467,-0.08467 z m -0.338667,-0.884977 c 0,-0.186784 0.02764,-0.203255 0.275167,-0.163951 0.151341,0.02403 0.332316,0.03655 0.402166,0.02781 0.06985,-0.0087 0.746125,-0.02425 1.502834,-0.03449 l 1.375833,-0.01861 v 0.198442 0.198442 h -1.778 -1.778 z"
         id="path3503"
         sodipodi:nodetypes="ccccsccscsccscscsssccccccccscc" />
    </g>
    <g
       id="g3445">
      <path
         style="fill:#ebdcc9;stroke-width:0.0846667"
         d="m 23.573619,-17.997714 c 0.02878,-0.04657 0.06913,-0.08467 0.08966,-0.08467 0.02054,0 0.03734,0.0381 0.03734,0.08467 0,0.04657 -0.04035,0.08467 -0.08966,0.08467 -0.04931,0 -0.06612,-0.0381 -0.03734,-0.08467 z m -0.04233,-0.508 c 0,-0.04657 -0.136525,-0.08467 -0.303389,-0.08467 -0.313663,0 -0.359504,-0.122211 -0.105854,-0.282209 0.09384,-0.05919 0.193757,-0.03688 0.352133,0.07862 0.221032,0.161193 0.301527,0.372925 0.141776,0.372925 -0.04657,0 -0.08467,-0.0381 -0.08467,-0.08467 z m -3.357027,-0.35597 c -0.0081,-0.206006 0.01927,-0.30113 0.07658,-0.265708 0.0499,0.03084 0.06449,0.01507 0.03308,-0.03575 -0.03091,-0.05001 0.01027,-0.157385 0.0915,-0.238617 0.109788,-0.109789 0.343797,-0.607588 0.360587,-0.767066 7.01e-4,-0.0067 -0.05703,-0.03448 -0.128301,-0.06183 -0.08456,-0.03245 -0.162813,0.02323 -0.225257,0.160275 -0.147841,0.324476 -0.221261,0.251109 -0.224947,-0.224785 -0.0027,-0.347855 0.03377,-0.464891 0.182372,-0.585378 0.102158,-0.08283 0.158087,-0.178355 0.124287,-0.212283 -0.0338,-0.03393 -0.119525,-0.01349 -0.1905,0.04541 -0.113042,0.09382 -0.129046,0.04744 -0.129046,-0.373932 0,-0.345708 0.02787,-0.463809 0.09905,-0.419811 0.06945,0.04292 0.07995,0.01278 0.03513,-0.100837 -0.125316,-0.317691 -0.15889,-0.712389 -0.0606,-0.712389 0.05266,0 0.09574,0.03591 0.09574,0.0798 0,0.04389 0.161925,0.09244 0.359834,0.107898 l 0.359833,0.0281 -0.296333,0.08748 c -0.248733,0.07343 -0.300595,0.130896 -0.322865,0.357768 -0.03124,0.318271 0.128554,0.362444 0.365198,0.100956 0.08429,-0.09313 0.238513,-0.169333 0.342731,-0.169333 0.190433,0 0.333965,-0.202705 0.245214,-0.346308 -0.02618,-0.04236 0.126093,-0.07703 0.338392,-0.07703 h 0.385996 v 0.425429 c 0,0.375886 0.02465,0.434801 0.211667,0.505905 0.202744,0.07708 0.296026,0.254 0.133925,0.254 -0.04276,0 -0.144623,0.02566 -0.226366,0.05703 -0.111682,0.04286 -0.135968,0.02405 -0.09771,-0.07565 0.03068,-0.07995 -0.03079,-0.20944 -0.154635,-0.325791 -0.113053,-0.106207 -0.20555,-0.262663 -0.20555,-0.347679 0,-0.08502 -0.05715,-0.154575 -0.127,-0.154575 -0.06985,0 -0.127,0.0381 -0.127,0.08467 0,0.04657 0.03348,0.08467 0.07439,0.08467 0.04092,0 0.124015,0.119794 0.184661,0.266208 0.100554,0.242757 0.094,0.279381 -0.07439,0.415738 -0.192551,0.155919 -0.245874,0.334054 -0.09999,0.334054 0.04657,0 0.08467,-0.0381 0.08467,-0.08467 0,-0.04657 0.05715,-0.08467 0.127,-0.08467 0.06985,0 0.127,0.05103 0.127,0.11341 0,0.06237 0.0942,0.156329 0.209331,0.208787 0.220993,0.100691 0.346609,0.416671 0.274803,0.691255 -0.03755,0.14358 -0.0097,0.157782 0.223314,0.113728 0.14642,-0.02769 0.315458,-0.08909 0.37564,-0.136439 0.0752,-0.05917 0.140075,-0.05545 0.207434,0.01191 0.178542,0.178542 0.236134,0.102105 0.181324,-0.240655 -0.04853,-0.303505 -0.03595,-0.338667 0.121152,-0.338667 0.15436,0 0.174914,0.05058 0.172027,0.423334 -0.0028,0.358626 -0.02792,0.423333 -0.164485,0.423333 -0.106912,0 -0.161207,0.05941 -0.161207,0.176389 0,0.255723 -0.206276,0.152421 -0.238457,-0.119419 -0.03159,-0.266852 -0.151086,-0.296814 -0.227209,-0.05697 -0.02956,0.09313 -0.127377,0.169333 -0.217373,0.169333 -0.10785,0 -0.163627,0.05844 -0.163627,0.171429 0,0.103333 -0.0812,0.202302 -0.204422,0.24915 -0.211084,0.08025 -0.354539,0.359802 -0.261713,0.509997 0.08421,0.136259 0.297042,0.09893 0.357762,-0.06274 0.06678,-0.177821 0.538067,-0.635694 0.595352,-0.578409 0.02222,0.02222 -0.04431,0.215401 -0.147849,0.429285 l -0.188254,0.388881 -0.604605,-0.0044 c -0.332533,-0.0024 -0.890355,0.0072 -1.239605,0.02133 l -0.635,0.02569 z m 1.168393,-0.109696 c 0,-0.04424 -0.04096,-0.09409 -0.09102,-0.110772 -0.05006,-0.01669 -0.09102,0.03316 -0.09102,0.110772 0,0.07761 0.04096,0.127458 0.09102,0.110772 0.05006,-0.01669 0.09102,-0.06653 0.09102,-0.110772 z m 0.3593,-0.09174 c 0.03164,-0.08246 0.01272,-0.121165 -0.04915,-0.100541 -0.126563,0.04219 -0.196249,0.234616 -0.08496,0.234616 0.04547,0 0.105816,-0.06033 0.134114,-0.134075 z m -0.476069,-0.35805 c 0.01843,-0.0553 -0.02681,-0.100541 -0.100542,-0.100541 -0.07373,0 -0.134055,0.06032 -0.134055,0.134055 0,0.149515 0.182267,0.123477 0.234597,-0.03351 z m 0.950736,0.02646 c 0,-0.06985 -0.05715,-0.127 -0.127,-0.127 -0.132213,0 -0.167976,0.100135 -0.07056,0.197555 0.09742,0.09742 0.197556,0.06166 0.197556,-0.07055 z m 0,-0.97101 c 0,-0.113372 -0.04062,-0.15109 -0.127,-0.117941 -0.13583,0.05212 -0.161994,0.136735 -0.07056,0.228173 0.106789,0.106788 0.197556,0.05614 0.197556,-0.110232 z m -1.056041,-0.429699 c 0.07935,-0.128385 -0.135716,-0.362401 -0.238546,-0.259571 -0.09495,0.09495 -0.02108,0.347946 0.1016,0.347946 0.04528,0 0.106905,-0.03977 0.136946,-0.08837 z m 2.410708,1.410702 c 0,-0.116417 0.0381,-0.235214 0.08467,-0.263993 0.04782,-0.02955 0.08467,0.03979 0.08467,0.159339 0,0.116417 -0.0381,0.235214 -0.08467,0.263994 -0.04782,0.02956 -0.08467,-0.03979 -0.08467,-0.15934 z m -3.386667,-0.136993 c 0,-0.158045 0.02258,-0.180623 0.1016,-0.1016 0.07902,0.07902 0.07902,0.124177 0,0.2032 -0.07902,0.07902 -0.1016,0.05644 -0.1016,-0.1016 z m 2.427111,-1.157112 c -0.03104,-0.03104 -0.05644,-0.110271 -0.05644,-0.17606 0,-0.08905 0.06537,-0.105258 0.255823,-0.06343 0.196631,0.04319 0.289685,0.01706 0.402167,-0.112915 0.08049,-0.09301 0.231848,-0.193963 0.336354,-0.224345 0.164415,-0.0478 0.187589,-0.02598 0.172033,0.161976 -0.01463,0.176815 -0.06179,0.217217 -0.25351,0.217217 -0.152919,0 -0.235534,0.04455 -0.235534,0.127 0,0.08749 -0.0878,0.127 -0.282222,0.127 -0.155222,0 -0.307622,-0.0254 -0.338667,-0.05645 z m 0.430389,-0.853384 c -0.173715,-0.03977 -0.186156,-0.132305 -0.04761,-0.354147 0.09576,-0.153332 0.10597,-0.150568 0.214145,0.05794 0.12445,0.239879 0.06321,0.348805 -0.166532,0.296209 z m 0.623655,-0.33208 c -0.0054,-0.0544 -0.03448,-0.168699 -0.06462,-0.254 -0.04251,-0.120334 -0.03125,-0.133388 0.05027,-0.05825 0.05779,0.05326 0.08686,0.167562 0.06462,0.254 -0.02225,0.08644 -0.04487,0.112651 -0.05027,0.05825 z m -1.195155,-0.239758 c 0,-0.06985 0.0381,-0.127 0.08467,-0.127 0.04657,0 0.08467,0.05715 0.08467,0.127 0,0.06985 -0.0381,0.127 -0.08467,0.127 -0.04657,0 -0.08467,-0.05715 -0.08467,-0.127 z"
         id="path3461" />
      <path
         style="fill:#dcccb8;stroke-width:0.0846667"
         d="m 20.421397,-18.564387 c 0.08238,-0.02147 0.196678,-0.02005 0.254,0.0031 0.05732,0.02319 -0.01008,0.04076 -0.149778,0.03903 -0.1397,-0.0017 -0.1866,-0.0207 -0.104222,-0.04217 z m 0.76581,0.0039 c 0.03052,-0.03052 0.376413,-0.0495 0.768655,-0.04217 l 0.713168,0.01331 0.18682,-0.385918 c 0.102751,-0.212255 0.168638,-0.404101 0.146415,-0.426323 -0.05729,-0.05729 -0.528569,0.400588 -0.595352,0.578409 -0.06072,0.161677 -0.273549,0.199002 -0.357762,0.06274 -0.09283,-0.150195 0.05063,-0.429743 0.261713,-0.509997 0.12322,-0.04685 0.204422,-0.145817 0.204422,-0.24915 0,-0.112992 0.05578,-0.171429 0.163627,-0.171429 0.09,0 0.187813,-0.0762 0.217373,-0.169333 0.07612,-0.239844 0.195619,-0.209882 0.227209,0.05697 0.03218,0.27184 0.238457,0.375142 0.238457,0.119419 0,-0.119945 0.05419,-0.176389 0.169334,-0.176389 0.178569,0 0.227841,0.12318 0.08467,0.211667 -0.04657,0.02878 -0.08467,0.147576 -0.08467,0.263993 0,0.119551 0.03685,0.188895 0.08467,0.15934 0.04657,-0.02878 0.08467,-0.01198 0.08467,0.03734 0,0.04931 -0.0381,0.08966 -0.08467,0.08966 -0.122139,0 -0.10439,0.232844 0.02117,0.277686 0.05821,0.02079 0.07749,0.06818 0.04285,0.105315 -0.03464,0.03713 -0.141644,-0.0037 -0.237789,-0.09068 -0.130929,-0.118489 -0.209491,-0.136322 -0.31298,-0.07104 -0.254667,0.16064 -0.209238,0.275102 0.121669,0.306553 0.177512,0.01687 -0.226679,0.03852 -0.898202,0.0481 -0.671523,0.0096 -1.195981,-0.0075 -1.165462,-0.03807 z m 1.582079,-0.876524 c 0,-0.04657 -0.0168,-0.08467 -0.03734,-0.08467 -0.02053,0 -0.06088,0.0381 -0.08966,0.08467 -0.02878,0.04657 -0.01198,0.08467 0.03734,0.08467 0.04931,0 0.08966,-0.0381 0.08966,-0.08467 z m -2.611299,0.677333 c 0,-0.116416 0.01922,-0.164041 0.04271,-0.105833 0.02349,0.05821 0.02349,0.153458 0,0.211667 -0.02349,0.05821 -0.04271,0.01058 -0.04271,-0.105834 z m 1.002632,-0.211666 c 0,-0.07761 0.04096,-0.127459 0.09102,-0.110772 0.05006,0.01669 0.09102,0.06653 0.09102,0.110772 0,0.04424 -0.04096,0.09409 -0.09102,0.110772 -0.05006,0.01669 -0.09102,-0.03316 -0.09102,-0.110772 z m 0.358069,-0.05821 c 0.01843,-0.0553 0.07878,-0.115631 0.134114,-0.134074 0.06187,-0.02062 0.08079,0.01808 0.04915,0.100541 -0.05906,0.1539 -0.23406,0.185922 -0.183264,0.03353 z m -1.254795,-0.383115 c 0.03132,-0.09868 0.0173,-0.20393 -0.03116,-0.233881 -0.04846,-0.02995 -0.08695,-0.09983 -0.08554,-0.155292 0.0014,-0.05546 0.04141,-0.03416 0.08887,0.04733 0.116959,0.200806 0.247219,0.18702 0.247219,-0.02616 0,-0.09588 -0.0381,-0.150783 -0.08467,-0.122003 -0.118218,0.07306 -0.105716,-0.06647 0.02117,-0.236238 0.06125,-0.08195 0.148886,-0.114359 0.208023,-0.07694 0.131086,0.08295 -0.03157,0.593315 -0.262777,0.824525 -0.154338,0.154337 -0.156736,0.153831 -0.101139,-0.02134 z m 0.727393,0.02505 c 0,-0.07373 0.06033,-0.134055 0.134055,-0.134055 0.149515,0 0.123477,0.182266 -0.03351,0.234597 -0.0553,0.01843 -0.100541,-0.02681 -0.100541,-0.100542 z m 0.987777,0.0635 c -0.09742,-0.09742 -0.06166,-0.197555 0.07056,-0.197555 0.06985,0 0.127,0.05715 0.127,0.127 0,0.132213 -0.100135,0.167975 -0.197556,0.07055 z m 0.42769,-0.79277 c 0.07181,-0.274584 -0.05381,-0.590564 -0.274803,-0.691255 -0.115132,-0.05246 -0.209331,-0.146412 -0.209331,-0.208787 0,-0.06238 -0.05715,-0.11341 -0.127,-0.11341 -0.06985,0 -0.127,0.0381 -0.127,0.08467 0,0.04657 -0.0381,0.08467 -0.08467,0.08467 -0.145879,0 -0.09256,-0.178135 0.09999,-0.334054 0.168395,-0.136357 0.174949,-0.172981 0.07439,-0.415738 -0.06065,-0.146414 -0.143744,-0.266208 -0.184661,-0.266208 -0.04092,0 -0.07439,-0.0381 -0.07439,-0.08467 0,-0.04657 0.05715,-0.08467 0.127,-0.08467 0.06985,0 0.127,0.06956 0.127,0.154575 0,0.08502 0.0925,0.241472 0.20555,0.347679 0.12385,0.116351 0.185313,0.245845 0.154635,0.325791 -0.03826,0.09971 -0.01398,0.11851 0.09771,0.07565 0.08174,-0.03137 0.183608,-0.05703 0.226366,-0.05703 0.162101,0 0.06882,-0.176917 -0.133925,-0.254 -0.187017,-0.0711 -0.211667,-0.130019 -0.211667,-0.505905 v -0.425429 h -0.385996 c -0.212299,0 -0.364575,0.03466 -0.338392,0.07703 0.08875,0.143603 -0.05478,0.346308 -0.245214,0.346308 -0.104218,0 -0.258446,0.0762 -0.342731,0.169333 -0.236644,0.261488 -0.396438,0.217315 -0.365198,-0.100956 0.02232,-0.227387 0.07357,-0.283836 0.322865,-0.355637 l 0.296333,-0.08535 -0.381,-0.05498 c -0.20955,-0.03024 0.24765,-0.04531 1.016,-0.03349 1.767073,0.02718 2.038719,0.04801 1.494431,0.114554 -0.378187,0.04624 -0.418689,0.07394 -0.513509,0.351173 -0.136476,0.39903 -0.07753,0.563177 0.112962,0.314578 0.08101,-0.105721 0.171632,-0.258894 0.20138,-0.340386 0.0723,-0.198041 0.204779,-0.187696 0.271069,0.02117 0.02956,0.09313 0.125129,0.169333 0.212376,0.169333 0.236038,0 0.283842,0.148819 0.08724,0.271597 -0.194338,0.121366 -0.225695,0.285542 -0.06678,0.349663 0.06508,0.02626 0.05063,0.04528 -0.03753,0.04939 -0.07885,0.0037 -0.199367,0.08664 -0.267814,0.18436 -0.100737,0.143821 -0.175739,0.16641 -0.393636,0.118552 -0.232191,-0.051 -0.265105,-0.0376 -0.239482,0.09749 0.03965,0.209034 0.663298,0.281487 0.663298,0.07706 0,-0.148494 0.379329,-0.187141 0.465667,-0.04744 0.02879,0.04659 -0.03095,0.08467 -0.132825,0.08467 -0.168591,0 -0.180307,0.03029 -0.130996,0.338667 0.05481,0.34276 -0.0028,0.419197 -0.181324,0.240655 -0.06736,-0.06736 -0.132233,-0.07109 -0.207434,-0.01191 -0.06018,0.04735 -0.22922,0.108751 -0.37564,0.136439 -0.232974,0.04405 -0.260861,0.02985 -0.223314,-0.113728 z m 0.606804,-0.200053 c 0.117844,-0.06532 0.164876,-0.13484 0.112939,-0.166939 -0.114475,-0.07075 -0.526544,0.08429 -0.526544,0.198111 0,0.117211 0.168871,0.104484 0.413605,-0.03117 z m -0.582938,-0.733729 c 0,-0.04382 -0.05715,-0.07967 -0.127,-0.07967 -0.130929,0 -0.168208,0.0999 -0.07286,0.195254 0.06764,0.06764 0.199857,-0.0088 0.199857,-0.115584 z m 0.649235,-0.284772 c -0.02819,-0.07346 -0.09174,-0.133565 -0.141235,-0.133565 -0.123783,0 -0.198971,0.223976 -0.132947,0.396032 0.04996,0.130196 0.06579,0.130743 0.189969,0.0066 0.07451,-0.07451 0.112403,-0.195571 0.08421,-0.269032 z m 0.0888,-0.492936 c -0.108175,-0.208506 -0.118388,-0.21127 -0.214145,-0.05794 -0.138543,0.221842 -0.126102,0.314377 0.04761,0.354147 0.229743,0.0526 0.290982,-0.05633 0.166532,-0.296209 z m -2.400748,-0.190962 c 0.0268,-0.06985 0.126131,-0.127 0.220725,-0.127 0.0946,0 0.171991,-0.04113 0.171991,-0.09139 0,-0.05877 -0.09821,-0.07033 -0.275167,-0.03238 -0.35245,0.07559 -0.402166,0.107211 -0.402166,0.255768 0,0.161156 0.222357,0.157252 0.284617,-0.005 z m 1.578049,-0.17433 c 0,-0.0671 -0.0381,-0.122003 -0.08467,-0.122003 -0.04657,0 -0.08467,0.07845 -0.08467,0.17433 0,0.09588 0.0381,0.150783 0.08467,0.122003 0.04657,-0.02878 0.08467,-0.107228 0.08467,-0.17433 z m 0.254,0.08966 c 0,-0.06985 -0.0381,-0.127 -0.08467,-0.127 -0.04657,0 -0.08467,0.05715 -0.08467,0.127 0,0.06985 0.0381,0.127 0.08467,0.127 0.04657,0 0.08467,-0.05715 0.08467,-0.127 z m -0.620889,1.848556 c -0.09144,-0.09144 -0.06527,-0.176051 0.07056,-0.228173 0.08638,-0.03315 0.127,0.0046 0.127,0.117941 0,0.166374 -0.09077,0.21702 -0.197556,0.110232 z m -1.128677,-0.584247 c -0.0752,-0.195962 0.0912,-0.325542 0.21951,-0.170939 0.108468,0.130695 0.05934,0.30363 -0.08626,0.30363 -0.04528,0 -0.105241,-0.05971 -0.133246,-0.132691 z m 0.225566,-0.03664 c 0,-0.04657 -0.04035,-0.08467 -0.08966,-0.08467 -0.04931,0 -0.06612,0.0381 -0.03734,0.08467 0.02878,0.04657 0.06913,0.08467 0.08966,0.08467 0.02053,0 0.03734,-0.0381 0.03734,-0.08467 z m -0.860602,0.0104 c 0.06219,-0.03942 0.106953,-0.104557 0.09948,-0.144753 -0.0075,-0.0402 0.02738,-0.08674 0.07743,-0.103423 0.05006,-0.01669 0.09102,0.0033 0.09102,0.04445 0,0.103554 -0.184437,0.278262 -0.2921,0.276692 -0.04889,-7.11e-4 -0.03802,-0.03355 0.02416,-0.07297 z m -0.03188,-1.032037 c -0.0307,-0.04967 -0.03765,-0.108458 -0.01546,-0.130652 0.02219,-0.02219 0.06291,0.01844 0.09049,0.0903 0.05725,0.149192 0.0085,0.175434 -0.07503,0.04035 z m 0.955981,-1.235773 c 0.05821,-0.02349 0.153459,-0.02349 0.211667,0 0.05821,0.02349 0.01058,0.0427 -0.105833,0.0427 -0.116417,0 -0.164042,-0.01922 -0.105834,-0.0427 z"
         id="path3459" />
      <path
         style="fill:#c9b9ab;stroke-width:0.0846667"
         d="m 20.589119,-18.48169 c 0.128058,-0.0194 0.337608,-0.0194 0.465667,0 0.128058,0.0194 0.02328,0.03527 -0.232834,0.03527 -0.256116,0 -0.360891,-0.01587 -0.232833,-0.03527 z m 2.942167,-0.48969 c 0,-0.06985 0.0381,-0.127 0.08467,-0.127 0.04657,0 0.08467,0.05715 0.08467,0.127 0,0.06985 -0.0381,0.127 -0.08467,0.127 -0.04657,0 -0.08467,-0.05715 -0.08467,-0.127 z m -0.889,-0.465667 c 0.02878,-0.04657 0.06913,-0.08467 0.08966,-0.08467 0.02053,0 0.03734,0.0381 0.03734,0.08467 0,0.04657 -0.04035,0.08467 -0.08966,0.08467 -0.04931,0 -0.06612,-0.0381 -0.03734,-0.08467 z m -2.356556,-0.225778 c -0.09144,-0.09144 -0.06527,-0.17605 0.07056,-0.228173 0.08638,-0.03315 0.127,0.0046 0.127,0.117942 0,0.166374 -0.09077,0.21702 -0.197556,0.110231 z m 2.314222,-0.622984 c 0,-0.11382 0.412069,-0.26886 0.526544,-0.198111 0.05194,0.0321 0.0049,0.101619 -0.112939,0.166939 -0.244734,0.135656 -0.413605,0.148383 -0.413605,0.03117 z m -1.651,-0.590571 c -0.02878,-0.04657 -0.01198,-0.08467 0.03734,-0.08467 0.04931,0 0.08966,0.0381 0.08966,0.08467 0,0.04657 -0.0168,0.08467 -0.03734,0.08467 -0.02054,0 -0.06088,-0.0381 -0.08966,-0.08467 z m 1.28181,-0.05875 c -0.09535,-0.09535 -0.05807,-0.195254 0.07286,-0.195254 0.06985,0 0.127,0.03585 0.127,0.07967 0,0.106763 -0.132215,0.183227 -0.199857,0.115584 z m 0.57491,-0.137889 c -0.06602,-0.172056 0.0092,-0.396032 0.132947,-0.396032 0.159416,0 0.19666,0.262959 0.05702,0.402597 -0.124178,0.124178 -0.140009,0.123631 -0.189969,-0.0066 z m 0.55628,-0.333332 c 0,-0.05865 0.0762,-0.154222 0.169334,-0.212384 0.100374,-0.06268 0.169333,-0.07098 0.169333,-0.02037 0,0.04696 -0.0381,0.08539 -0.08467,0.08539 -0.04657,0 -0.08467,0.04035 -0.08467,0.08966 0,0.04931 0.04399,0.06248 0.09775,0.02925 0.06056,-0.03743 0.07477,-0.02323 0.03734,0.03734 -0.08114,0.131289 -0.304419,0.124772 -0.304419,-0.0089 z m -0.781046,-0.246839 c -0.01887,-0.0566 0.01202,-0.23835 0.06864,-0.403886 0.09512,-0.278116 0.134122,-0.304521 0.513509,-0.347665 0.361787,-0.04114 0.38039,-0.05231 0.156569,-0.09399 l -0.254,-0.0473 0.27383,0.01333 c 0.150607,0.0073 0.29313,-0.02657 0.316719,-0.07534 0.02359,-0.04877 0.01915,0.0066 -0.0099,0.12299 -0.02901,0.116417 -0.0855,0.224266 -0.125543,0.239664 -0.04004,0.0154 -0.03366,0.101123 0.01417,0.1905 0.07205,0.134636 0.0584,0.162503 -0.07964,0.162503 -0.09225,0 -0.190593,-0.07558 -0.220351,-0.169333 -0.06629,-0.208863 -0.198774,-0.219208 -0.271069,-0.02117 -0.09447,0.258803 -0.345907,0.540905 -0.382977,0.429694 z m -2.09762,-0.361197 c 0,-0.148557 0.04972,-0.180175 0.402166,-0.255768 0.176952,-0.03795 0.275167,-0.0264 0.275167,0.03238 0,0.05027 -0.0774,0.09139 -0.171991,0.09139 -0.09459,0 -0.193921,0.05715 -0.220725,0.127 -0.06226,0.162249 -0.284617,0.166153 -0.284617,0.005 z m 1.693333,-0.127 c 0,-0.09588 0.0381,-0.17433 0.08467,-0.17433 0.04657,0 0.08467,0.0549 0.08467,0.122003 0,0.0671 -0.0381,0.14555 -0.08467,0.17433 -0.04657,0.02878 -0.08467,-0.02612 -0.08467,-0.122003 z m 0.276778,-0.402337 c 0.08238,-0.02147 0.196678,-0.02005 0.254,0.0031 0.05732,0.02319 -0.01008,0.04076 -0.149778,0.03903 -0.1397,-0.0017 -0.1866,-0.0207 -0.104222,-0.04217 z m -1.569356,-0.544499 c 0.05743,-0.05786 0.125751,-0.08388 0.151818,-0.05781 0.02607,0.02607 -0.02092,0.07341 -0.104422,0.105205 -0.120667,0.04595 -0.130392,0.03622 -0.0474,-0.0474 z m 0.594078,-0.04557 c 0.05821,-0.02349 0.153458,-0.02349 0.211667,0 0.05821,0.02349 0.01058,0.0427 -0.105834,0.0427 -0.116416,0 -0.164041,-0.01922 -0.105833,-0.0427 z m 0.931333,-0.0037 c 0.104775,-0.02018 0.276225,-0.02018 0.381,0 0.104775,0.02018 0.01905,0.03669 -0.1905,0.03669 -0.20955,0 -0.295275,-0.01651 -0.1905,-0.03669 z"
         id="path3457" />
      <path
         style="fill:#aaa18e;stroke-width:0.0846667"
         d="m 20.313952,-18.002034 c 0,-0.05958 0.531576,-0.08429 1.608667,-0.07477 0.884767,0.0078 1.608667,0.04786 1.608667,0.08899 0,0.04112 -0.7239,0.07477 -1.608667,0.07477 -1.068073,0 -1.608667,-0.0299 -1.608667,-0.08899 z m 1.037167,-0.477376 c 0.08149,-0.0213 0.214842,-0.0213 0.296333,0 0.08149,0.0213 0.01482,0.03872 -0.148166,0.03872 -0.162984,0 -0.229659,-0.01742 -0.148167,-0.03872 z m 0.933888,-0.004 c 0.222597,-0.0175 0.565497,-0.01729 0.762,4.66e-4 0.196503,0.01776 0.01438,0.03207 -0.404721,0.03181 -0.4191,-2.54e-4 -0.579876,-0.01479 -0.357279,-0.03228 z m 1.246279,-2.985662 c 0,-0.04657 0.04035,-0.08467 0.08966,-0.08467 0.04931,0 0.06612,0.0381 0.03734,0.08467 -0.02878,0.04657 -0.06913,0.08467 -0.08966,0.08467 -0.02054,0 -0.03734,-0.0381 -0.03734,-0.08467 z m 0.09135,-0.896055 c 0.0041,-0.09863 0.02412,-0.118694 0.05115,-0.05115 0.02446,0.06112 0.02145,0.134144 -0.0067,0.162278 -0.02813,0.02813 -0.04814,-0.02187 -0.04447,-0.111125 z m -2.525518,-0.267731 c 0.454025,-0.01522 1.196975,-0.01522 1.651,0 0.454025,0.01522 0.08255,0.02768 -0.8255,0.02768 -0.90805,0 -1.279525,-0.01246 -0.8255,-0.02768 z"
         id="path3455" />
      <path
         style="fill:#948a70;stroke-width:0.0846667"
         d="m 21.228139,-17.891436 c 0.386386,-0.01572 0.995986,-0.01564 1.354667,1.95e-4 0.35868,0.01583 0.04255,0.0287 -0.70252,0.02859 -0.745067,-1.08e-4 -1.038533,-0.01306 -0.652147,-0.02878 z m -1.039444,-0.532431 c 0.03506,-0.05673 0.548591,-0.003 0.548591,0.05742 0,0.01946 -0.130889,0.02656 -0.290863,0.01579 -0.159975,-0.01077 -0.275952,-0.04372 -0.257728,-0.0732 z m 0.825369,0.02881 c 0.08238,-0.02147 0.196678,-0.02005 0.254,0.0031 0.05732,0.02319 -0.01008,0.04076 -0.149778,0.03903 -0.1397,-0.0017 -0.1866,-0.0207 -0.104222,-0.04217 z m 0.718055,0.0026 c 0.05821,-0.02349 0.153458,-0.02349 0.211667,0 0.05821,0.02349 0.01058,0.0427 -0.105834,0.0427 -0.116416,0 -0.164041,-0.01922 -0.105833,-0.0427 z m 1.652611,-0.0026 c 0.08238,-0.02147 0.196678,-0.02005 0.254,0.0031 0.05732,0.02319 -0.01008,0.04076 -0.149778,0.03903 -0.1397,-0.0017 -0.1866,-0.0207 -0.104222,-0.04217 z m -2.859111,-4.597994 c -0.111653,-0.04798 -0.126073,-0.07435 -0.04233,-0.07742 0.06985,-0.0026 0.18415,0.03228 0.254,0.07742 0.154767,0.100019 0.02109,0.100019 -0.211667,0 z m 0.783167,-0.05607 c 0.05821,-0.02349 0.153458,-0.02349 0.211666,0 0.05821,0.02349 0.01058,0.0427 -0.105833,0.0427 -0.116417,0 -0.164042,-0.01922 -0.105833,-0.0427 z m 1.906611,-0.0026 c 0.08238,-0.02147 0.196678,-0.02005 0.254,0.0031 0.05732,0.02319 -0.01008,0.04076 -0.149778,0.03903 -0.1397,-0.0017 -0.1866,-0.0207 -0.104222,-0.04217 z"
         id="path3453" />
      <path
         style="fill:#867862;stroke-width:0.0846667"
         d="m 20.382744,-17.886217 c 0.06112,-0.02446 0.134144,-0.02145 0.162278,0.0067 0.02813,0.02813 -0.02187,0.04814 -0.111125,0.04447 -0.09863,-0.0041 -0.118694,-0.02413 -0.05115,-0.05115 z m 2.873375,0.0018 c 0.05821,-0.02349 0.153458,-0.02349 0.211667,0 0.05821,0.02349 0.01058,0.04271 -0.105834,0.04271 -0.116416,0 -0.164041,-0.01922 -0.105833,-0.04271 z m -2.159,-0.261046 c 0.454025,-0.01522 1.196975,-0.01522 1.651,0 0.454025,0.01522 0.08255,0.02768 -0.8255,0.02768 -0.90805,0 -1.279525,-0.01246 -0.8255,-0.02768 z m 0.296333,-0.246954 c 0.05821,-0.02349 0.153459,-0.02349 0.211667,0 0.05821,0.02349 0.01058,0.04271 -0.105833,0.04271 -0.116417,0 -0.164042,-0.01922 -0.105834,-0.04271 z m 0.721278,-0.0026 c 0.08238,-0.02147 0.196678,-0.02006 0.254,0.0031 0.05732,0.02319 -0.01008,0.04076 -0.149778,0.03903 -0.1397,-0.0017 -0.1866,-0.0207 -0.104222,-0.04217 z m 0.633389,-0.0011 c 0.104775,-0.02018 0.276225,-0.02018 0.381,0 0.104775,0.02018 0.01905,0.03669 -0.1905,0.03669 -0.20955,0 -0.295275,-0.01651 -0.1905,-0.03669 z m -1.651,-4.321367 c 0.454025,-0.01522 1.196975,-0.01522 1.651,0 0.454025,0.01522 0.08255,0.02768 -0.8255,0.02768 -0.90805,0 -1.279525,-0.01245 -0.8255,-0.02768 z m -0.719667,-0.246954 c 0.05821,-0.02349 0.153459,-0.02349 0.211667,0 0.05821,0.02349 0.01058,0.0427 -0.105833,0.0427 -0.116417,0 -0.164042,-0.01922 -0.105834,-0.0427 z m 1.359959,-0.08643 c 0.06112,-0.02446 0.134143,-0.02145 0.162277,0.0067 0.02813,0.02813 -0.02187,0.04814 -0.111125,0.04447 -0.09863,-0.0041 -0.118694,-0.02412 -0.05115,-0.05115 z m 0.762,0 c 0.06112,-0.02446 0.134143,-0.02145 0.162277,0.0067 0.02813,0.02813 -0.02187,0.04814 -0.111125,0.04447 -0.09863,-0.0041 -0.118694,-0.02412 -0.05115,-0.05115 z m 0.333375,0.0018 c 0.05821,-0.02349 0.153458,-0.02349 0.211666,0 0.05821,0.02349 0.01058,0.0427 -0.105833,0.0427 -0.116417,0 -0.164042,-0.01922 -0.105833,-0.0427 z"
         id="path3451" />
      <path
         style="fill:#6e644f;stroke-width:0.0846667"
         d="m 20.377452,-18.224134 c -0.334582,-0.09032 -0.111143,-0.152809 0.451203,-0.126195 0.329863,0.01561 0.578304,0.04983 0.552091,0.07604 -0.06328,0.06329 -0.815368,0.100879 -1.003294,0.05015 z m 2.7305,-0.02758 c -0.188904,-0.0605 -0.177522,-0.0687 0.105834,-0.07623 0.174625,-0.0046 0.3175,0.02966 0.3175,0.07623 0,0.09692 -0.120689,0.09692 -0.423334,0 z m -1.331888,-0.05867 c 0.08238,-0.02147 0.196678,-0.02006 0.254,0.0031 0.05732,0.02319 -0.01008,0.04076 -0.149778,0.03903 -0.1397,-0.0017 -0.1866,-0.0207 -0.104222,-0.04217 z m 0.592666,0 c 0.08238,-0.02147 0.196678,-0.02006 0.254,0.0031 0.05732,0.02319 -0.01008,0.04076 -0.149778,0.03903 -0.1397,-0.0017 -0.1866,-0.0207 -0.104222,-0.04217 z m -2.139444,-4.513326 c -0.09102,-0.05882 -0.0025,-0.08244 0.312503,-0.08337 0.241727,-7.13e-4 0.46305,0.0368 0.49183,0.08337 0.06818,0.110319 -0.633627,0.110319 -0.804333,0 z m 1.846791,0.02683 c 0.06112,-0.02446 0.134144,-0.02145 0.162278,0.0067 0.02813,0.02813 -0.02187,0.04814 -0.111125,0.04447 -0.09863,-0.0041 -0.118694,-0.02413 -0.05115,-0.05115 z m -1.084791,-0.177057 c 0,-0.06899 2.458146,-0.04452 2.527832,0.02517 0.02221,0.02221 -0.53746,0.04039 -1.243721,0.04039 -0.706261,0 -1.284111,-0.0295 -1.284111,-0.06556 z"
         id="path3449" />
      <path
         style="fill:#544d36;stroke-width:0.0846667"
         d="m 20.144619,-17.743714 c 0,-0.05376 0.649111,-0.08467 1.778,-0.08467 1.128889,0 1.778,0.03091 1.778,0.08467 0,0.05376 -0.649111,0.08467 -1.778,0.08467 -1.128889,0 -1.778,-0.03091 -1.778,-0.08467 z m 0,-0.45774 c 0,-0.079 0.0594,-0.10354 0.176491,-0.07292 0.134184,0.03509 0.149406,0.06332 0.0635,0.117777 -0.164535,0.104297 -0.239991,0.09019 -0.239991,-0.04486 z m 3.386667,-0.0079 c 0,-0.06985 0.0381,-0.127 0.08467,-0.127 0.04657,0 0.08467,0.05715 0.08467,0.127 0,0.06985 -0.0381,0.127 -0.08467,0.127 -0.04657,0 -0.08467,-0.05715 -0.08467,-0.127 z m -2.471209,-0.0155 c 0.06112,-0.02446 0.134144,-0.02145 0.162278,0.0067 0.02813,0.02813 -0.02187,0.04814 -0.111125,0.04447 -0.09863,-0.0041 -0.118694,-0.02413 -0.05115,-0.05115 z m 0.301405,-0.0093 c 0.04785,-0.07742 1.813517,-0.06332 1.891948,0.01511 0.02864,0.02864 -0.394671,0.05208 -0.940697,0.05208 -0.546026,0 -0.974089,-0.03023 -0.951251,-0.06718 z m -1.216863,-4.504815 c 0,-0.04657 0.0381,-0.08467 0.08467,-0.08467 0.04657,0 0.08467,0.0381 0.08467,0.08467 0,0.04657 -0.0381,0.08467 -0.08467,0.08467 -0.04657,0 -0.08467,-0.0381 -0.08467,-0.08467 z m 3.371173,0.04095 c -0.02404,-0.02404 -0.585016,-0.05025 -1.246604,-0.05823 -0.661588,-0.008 -1.222014,-0.04546 -1.245392,-0.08328 -0.02338,-0.03782 0.509079,-0.06877 1.183235,-0.06877 0.674156,0 1.277826,-0.01999 1.341489,-0.04442 0.07251,-0.02783 0.120573,0.01961 0.128663,0.127 0.01222,0.162227 -0.06543,0.223665 -0.161391,0.127702 z"
         id="path3447" />
    </g>
  </g>
</svg>
